<svg xmlns="http://www.w3.org/2000/svg" width="1254" height="1254" viewBox="0 0 1254 1254" version="1.1">
	<rect x="0" y="0" width="100%" height="100%" fill="#f8fafc" />
	<path d="M 382.216 88.891 C 375.795 91.108, 372.344 94.131, 369.818 99.748 C 368.755 102.112, 366.709 104.618, 365.204 105.398 C 361.340 107.402, 355.204 113.610, 351.827 118.931 C 345.977 128.151, 342.995 144.255, 344.797 156.896 C 345.600 162.531, 345.488 163.512, 343.854 165.146 C 341.388 167.612, 341.439 173.972, 343.990 182.232 C 346.429 190.130, 349.741 195.231, 352.915 195.980 C 354.849 196.437, 355.625 197.705, 356.965 202.599 C 357.877 205.928, 359.553 210.193, 360.690 212.076 C 364.780 218.849, 364.292 242.635, 359.876 251.757 C 355.345 261.115, 335.043 271.939, 310.590 278.032 C 289.882 283.193, 283.670 286.764, 276.433 297.666 C 268.288 309.938, 266.037 320.562, 265.029 351.500 C 264.359 372.075, 263.953 375.923, 261.174 388 C 259.466 395.425, 257.189 406.900, 256.114 413.500 C 252.636 434.851, 251.748 437.389, 241.598 454.970 C 231.246 472.900, 227.244 484.873, 219.525 521 C 215.050 541.944, 209.829 560.194, 205.276 570.810 C 201.711 579.120, 201.711 579.120, 194.605 582.661 C 186.394 586.752, 181.199 591.346, 176.422 598.741 C 174.560 601.624, 169.815 608.111, 165.878 613.157 C 158.370 622.778, 157.840 625.076, 162.954 625.833 C 167.118 626.449, 170.476 624.866, 174.763 620.267 C 177.108 617.752, 179.206 615.875, 179.426 616.097 C 179.645 616.319, 177.392 624.083, 174.418 633.350 C 171.445 642.618, 168.483 653.073, 167.837 656.584 C 166.791 662.259, 166.852 663.179, 168.387 664.875 C 171.083 667.855, 173.918 666.391, 176.664 660.601 C 177.994 657.796, 178.801 656.400, 178.456 657.500 C 176.419 663.991, 175.632 670.193, 176.641 671.796 C 179.199 675.857, 183.155 674.059, 186.073 667.508 C 187.679 663.903, 187.866 663.764, 187.929 666.128 C 188.107 672.736, 194.165 672.142, 197.229 665.216 C 199.014 661.180, 199.404 660.833, 200.489 662.315 C 203.243 666.082, 206.663 663.445, 210.715 654.428 C 220.052 633.651, 226.781 611.460, 227.828 597.992 C 228.656 587.347, 228.758 587.017, 235.665 572.853 C 239.514 564.959, 248.759 547.700, 256.209 534.500 C 263.660 521.300, 270.876 508.250, 272.245 505.500 C 277.509 494.922, 282.320 480.967, 285.511 467.015 C 287.751 457.221, 290.517 448.597, 294.017 440.500 C 301.286 423.683, 305.287 412.317, 308.578 399.125 C 310.139 392.869, 311.532 388.144, 311.672 388.625 C 311.813 389.106, 313.049 394.450, 314.419 400.500 C 315.788 406.550, 318.050 416.450, 319.443 422.500 C 320.837 428.550, 322.673 438.159, 323.522 443.854 C 326.023 460.618, 324.020 470.162, 307.959 518 C 294.061 559.399, 288.854 585.835, 285.901 630 C 283.716 662.669, 285.869 696.955, 292.746 739 C 296.261 760.487, 296.426 762.580, 296.423 785.500 C 296.419 809.500, 296.419 809.500, 292.220 829.688 C 286.267 858.308, 285 867.973, 285 884.770 C 285 901.731, 285.593 907.272, 291.046 941.250 C 298.388 986.994, 300.174 1007.283, 297.928 1019.431 C 297.339 1022.620, 296.756 1029.565, 296.632 1034.864 C 296.443 1043.023, 295.895 1045.862, 293.060 1053.386 C 290.055 1061.363, 287.859 1065.187, 278.751 1078.311 C 275.919 1082.392, 273 1091.107, 273 1095.481 C 273 1098.374, 277.821 1104, 280.301 1104 C 281.101 1104, 282.276 1104.628, 282.913 1105.395 C 284.546 1107.363, 291.762 1108.511, 298.750 1107.914 C 299.712 1107.832, 301.962 1108.366, 303.750 1109.101 C 306.502 1110.234, 307.651 1110.213, 311.250 1108.969 C 314.603 1107.810, 315.948 1106.612, 317.624 1103.295 C 318.792 1100.982, 320.929 1097.685, 322.374 1095.968 C 325.299 1092.492, 325.358 1092.172, 325.441 1079.495 C 325.496 1071.059, 325.705 1070.181, 328.750 1065.574 C 332.430 1060.007, 332.924 1054.745, 330.833 1043.399 C 329.938 1038.537, 329.944 1035.828, 330.861 1031.730 C 331.841 1027.349, 331.782 1025.093, 330.528 1019.131 C 326.756 1001.204, 329.908 975.233, 341.099 932 C 349.700 898.778, 350.940 887.455, 349.152 858.476 C 347.845 837.304, 348.696 830.433, 354.572 814.710 C 358.963 802.962, 362.310 788.899, 363.428 777.500 C 366.447 746.736, 369.912 723.055, 375.028 698.229 C 381.082 668.855, 385 640.628, 385 626.394 L 385 617.213 389.167 618.149 C 392.863 618.979, 396.079 618.787, 401 617.440 C 402.278 617.091, 402.511 619.063, 402.572 630.765 C 402.654 646.600, 404.724 661.805, 411.959 699.727 C 417.440 728.451, 419.036 739.361, 422.025 768.500 C 424.394 791.598, 426.737 802.703, 432.045 816 C 437.842 830.521, 438.440 835.096, 437.125 854.853 C 434.951 887.519, 435.897 897.600, 444.373 932.041 C 450.606 957.371, 452.450 966.549, 453.911 979.500 C 455.872 996.892, 456.204 1008.287, 454.902 1013.500 C 454.215 1016.250, 453.479 1025.250, 453.267 1033.500 C 453.054 1041.750, 452.795 1051.425, 452.690 1055 C 452.524 1060.676, 452.863 1062.035, 455.360 1065.715 C 458.065 1069.703, 458.227 1070.546, 458.360 1081.363 C 458.497 1092.567, 458.562 1092.874, 461.608 1096.663 C 463.317 1098.789, 465.012 1101.464, 465.375 1102.606 C 467.209 1108.384, 475.262 1111.512, 480.971 1108.664 C 483.436 1107.435, 484.644 1107.336, 486.558 1108.208 C 488.416 1109.055, 489.657 1109.005, 491.750 1107.997 C 493.262 1107.269, 495.439 1106.769, 496.586 1106.887 C 497.733 1107.004, 499.251 1106.403, 499.958 1105.550 C 500.666 1104.698, 501.977 1103.998, 502.872 1103.995 C 505.086 1103.989, 511.003 1098.305, 510.988 1096.199 C 510.969 1093.439, 508.442 1084.753, 506.652 1081.293 C 505.740 1079.529, 503.026 1075.254, 500.621 1071.793 C 495.014 1063.722, 492.915 1059.438, 489.511 1049.116 C 487.257 1042.281, 486.849 1039.607, 487.299 1034.639 C 487.635 1030.938, 487.229 1025.201, 486.265 1020.023 C 484.243 1009.158, 485.462 993.091, 490.576 963.220 C 497.933 920.247, 498.872 914.181, 500.053 902 C 502.108 880.806, 500.586 864.014, 493.527 829.961 C 486.627 796.681, 486.530 780.511, 492.985 739.611 C 499.403 698.944, 500.366 687.525, 500.377 652 C 500.385 628.046, 499.961 616.907, 498.608 605.500 C 494.953 574.677, 489.619 550.290, 480.070 520.753 C 463.500 469.498, 461.607 460.013, 464.317 441.840 C 465.625 433.072, 473.982 394.427, 475.745 389 C 476.012 388.175, 476.847 390.425, 477.599 394 C 480.070 405.751, 483.961 418.040, 489.113 430.364 C 497.355 450.079, 499.066 454.997, 501.167 465 C 505.624 486.222, 511.540 500.273, 528.965 531.014 C 535.663 542.831, 544.999 560.246, 549.713 569.712 C 558.283 586.925, 558.283 586.925, 559.015 598.212 C 559.977 613.063, 562.364 621.539, 574.160 652 C 577.859 661.551, 583.018 666.722, 584.638 662.500 C 585.548 660.129, 586.498 660.724, 587.873 664.525 C 589.536 669.125, 593.092 671.556, 595.933 670.036 C 597.070 669.427, 598.032 667.933, 598.071 666.715 C 598.123 665.061, 598.610 665.553, 599.990 668.657 C 602.198 673.621, 605.240 674.997, 608.162 672.354 C 610.189 670.519, 610.226 669.087, 608.453 661 C 608.041 659.120, 608.352 659.367, 609.706 662 C 610.979 664.473, 612.293 665.591, 614.186 665.810 C 620.326 666.520, 619.761 659.504, 611.436 631.668 C 608.996 623.510, 607 616.582, 607 616.273 C 607 615.963, 609.475 618.051, 612.501 620.912 C 617.579 625.715, 618.329 626.091, 622.251 625.807 C 628.662 625.344, 628.313 623.059, 620.217 612.473 C 616.443 607.538, 611.776 601.025, 609.847 598 C 605.367 590.974, 600.618 586.840, 592.094 582.547 C 584.873 578.911, 584.326 578.204, 580.077 567 C 576.150 556.643, 571.019 537.492, 565.546 512.752 C 558.448 480.673, 555.713 472.716, 545.697 455.002 C 536.158 438.130, 533.611 431.230, 531.433 416.354 C 530.559 410.385, 528.079 397.515, 525.922 387.756 C 522.205 370.939, 521.999 369.109, 521.980 352.756 C 521.943 320.404, 517.320 303.191, 505.489 291.359 C 498.698 284.568, 494.268 282.453, 478.510 278.485 C 462.610 274.480, 452.934 270.819, 443.204 265.127 C 427.127 255.721, 424.819 251.683, 424.186 231.864 C 423.755 218.344, 423.793 218.040, 426.688 211.818 C 428.305 208.343, 430.221 203.363, 430.944 200.750 C 431.853 197.468, 432.784 196, 433.956 196 C 436.827 196, 439.873 191.721, 442.539 183.941 C 445.789 174.459, 446.082 167.637, 443.355 164.911 C 441.571 163.127, 441.454 162.232, 442.217 156.211 C 443.120 149.089, 442.504 138.120, 440.830 131.500 C 438.296 121.477, 430.773 110.688, 422.973 105.888 C 419.573 103.796, 418.082 102.161, 417.663 100.063 C 415.615 89.827, 396.734 83.876, 382.216 88.891 M 385.500 89.872 C 380.658 91.153, 376.423 93.708, 373.619 97.041 C 371.294 99.804, 370.300 102, 371.374 102 C 371.580 102, 373.708 101.309, 376.104 100.463 C 386.618 96.754, 400.432 96.747, 411.169 100.446 C 413.508 101.252, 415.606 101.728, 415.831 101.503 C 417.028 100.305, 411.848 94.283, 407.851 92.226 C 402.868 89.662, 391.012 88.413, 385.500 89.872 M 856.105 93.519 C 847.796 95.852, 841.400 99.815, 835.181 106.487 C 824.006 118.473, 819.818 130.294, 819.573 150.535 C 819.446 161.026, 819.082 164.045, 817.708 166.007 C 815.430 169.259, 815.547 171.473, 818.484 180.698 C 821.449 190.009, 824.184 194.739, 827.284 195.918 C 828.950 196.551, 829.925 198.183, 830.891 201.952 C 831.619 204.794, 833.797 209.455, 835.731 212.309 C 839.247 217.500, 839.247 217.500, 838.685 230.500 C 837.786 251.265, 833.658 259.799, 821.421 266.184 C 811.937 271.133, 807.731 272.416, 787.423 276.558 C 766.421 280.841, 762.643 282.334, 755.347 289.232 C 742.783 301.111, 738.945 315.128, 737.067 356 C 736.437 369.727, 735.430 379.804, 734.022 386.500 C 732.866 392, 730.586 404.825, 728.957 415 C 725.996 433.500, 725.996 433.500, 718.356 448.500 C 704.594 475.519, 703.450 479.276, 697.041 518.500 C 693.145 542.343, 688.829 562.649, 685.352 573.500 C 683.445 579.449, 681.334 581.961, 674 587.006 C 667.283 591.628, 664.385 594.721, 659.486 602.500 C 657.407 605.800, 653.073 611.961, 649.854 616.191 C 646.634 620.421, 644 624.593, 644 625.462 C 644 626.332, 645.105 627.546, 646.455 628.161 C 649.901 629.732, 654.194 627.757, 659.694 622.073 C 664.037 617.583, 664.104 617.554, 663.409 620.500 C 663.020 622.150, 660.562 630.250, 657.948 638.500 C 651.869 657.683, 650.385 664.982, 651.963 667.931 C 653.829 671.417, 657.137 670.219, 659.706 665.127 C 662.818 658.958, 663.217 658.906, 661.437 664.900 C 660.584 667.772, 660.025 671.781, 660.193 673.811 C 660.472 677.166, 660.769 677.500, 663.468 677.500 C 665.887 677.500, 666.856 676.759, 668.702 673.500 C 670.438 670.434, 670.971 669.997, 670.984 671.628 C 671.005 674.417, 673.398 676.326, 675.886 675.536 C 676.976 675.190, 678.933 672.770, 680.235 670.157 C 682.549 665.513, 682.639 665.452, 684.219 667.453 C 687.797 671.983, 692.017 665.601, 698.075 646.500 C 700.342 639.350, 703.093 631.025, 704.188 628 C 707.317 619.353, 709.955 606.110, 709.978 598.925 C 710.013 588.275, 716.671 571.049, 737.005 529 C 752.400 497.166, 755.892 487.453, 759.595 466.173 C 761.424 455.665, 763.296 448.661, 766.191 441.500 C 774.512 420.915, 779.179 405.797, 781.473 392 C 782.159 387.875, 782.984 385.175, 783.307 386 C 784.519 389.099, 793.927 426.902, 795.923 436.692 C 800.616 459.719, 797.779 474.687, 781.162 514.572 C 771.422 537.953, 766.619 552.822, 763.095 570.500 C 753.948 616.389, 755.039 660.123, 767.429 744.237 C 773.607 786.183, 773.286 802.769, 765.648 836.008 C 755.588 879.792, 755.709 886.536, 767.997 967 C 773.708 1004.394, 774.496 1014.849, 772.443 1026.018 C 771.059 1033.550, 770.979 1036.089, 771.964 1041.308 C 772.952 1046.543, 772.881 1048.704, 771.529 1054.533 C 770.085 1060.761, 763.554 1075.493, 758.028 1084.984 C 756.913 1086.901, 756 1089.613, 756 1091.012 C 756 1098.469, 763.617 1101.182, 785.081 1101.370 C 798.607 1101.489, 800.055 1101.327, 802.661 1099.398 C 806.866 1096.285, 807.590 1093.191, 806.138 1084.547 C 805.051 1078.078, 805.100 1076.472, 806.512 1072.314 C 807.900 1068.224, 807.962 1066.597, 806.934 1061.153 C 806.140 1056.944, 805.994 1051.844, 806.502 1046.140 C 806.926 1041.388, 807.219 1034.912, 807.153 1031.750 C 806.248 988.262, 806.051 990.036, 817.632 937.500 C 826.892 895.497, 827.785 887.485, 826.089 861.686 C 824.697 840.531, 824.877 838.848, 830.123 824 C 834.732 810.955, 836.012 803.172, 837.026 782 C 838.684 747.398, 839.730 739.424, 847.444 702.582 C 854.291 669.880, 858.968 638.517, 858.991 625.154 C 858.997 621.283, 859.598 618.968, 861.170 616.762 C 862.363 615.086, 864.377 611.192, 865.646 608.108 C 866.914 605.023, 867.963 603.227, 867.976 604.116 C 867.989 605.004, 869.520 608.829, 871.379 612.616 C 874.467 618.908, 874.858 620.757, 875.920 634.131 C 877.459 653.495, 879.663 667.410, 886.984 704 C 893.804 738.080, 895.467 750.985, 896.973 781.500 C 898.102 804.369, 899.037 809.918, 904.555 826.500 C 908.706 838.971, 908.774 840.005, 907.518 871.578 C 906.583 895.098, 907.006 898.953, 913.993 930.500 C 926.288 986.019, 929.008 1008.321, 925.514 1024.935 C 924.199 1031.186, 924.199 1032.814, 925.514 1039.065 C 927.275 1047.436, 927.382 1053.145, 925.933 1061.461 C 925.064 1066.453, 925.153 1068.409, 926.415 1072.043 C 927.734 1075.841, 927.786 1077.731, 926.770 1084.828 C 925.372 1094.588, 926.297 1097.321, 932.020 1100.329 C 935.078 1101.935, 937.199 1102.091, 949.500 1101.609 C 977.487 1100.514, 982.007 1096.068, 971.992 1079.487 C 962.937 1064.496, 959.056 1051.144, 960.829 1041.082 C 961.707 1036.096, 961.603 1033.220, 960.292 1026.201 C 958.300 1015.539, 959.196 1003.410, 964.556 968.500 C 973.947 907.331, 974.186 905.316, 974.303 886.500 C 974.423 867.098, 973.420 859.264, 967.908 836.541 C 960.970 807.935, 960.270 782.286, 965.452 746.500 C 973.367 691.842, 974.933 676.093, 975.694 643.500 C 976.324 616.519, 975.357 600.064, 971.904 579 C 968.007 555.223, 963.952 541.715, 952.197 513.346 C 939.355 482.355, 935.205 466.008, 936.293 450.701 C 936.945 441.516, 938.869 432.328, 945.336 407.500 C 947.772 398.150, 950.104 389.150, 950.520 387.500 C 951.158 384.965, 951.551 386.020, 953.059 394.305 C 955.553 408.012, 959.200 420.279, 965.455 436 C 972.031 452.528, 971.479 450.581, 974.540 468.032 C 977.922 487.312, 982.326 499.957, 993.161 521.500 C 1003.472 541.998, 1011.400 559.636, 1018.849 578.646 C 1023.412 590.290, 1024 592.641, 1024 599.236 C 1024 607.712, 1025.653 614.806, 1033.050 638.065 C 1038.698 655.825, 1042.764 665.762, 1045.205 667.767 C 1047.246 669.445, 1049.807 668.366, 1050.192 665.665 C 1050.428 664.004, 1051.152 664.827, 1053.298 669.198 C 1056.197 675.100, 1059.011 677.066, 1061.548 674.960 C 1062.347 674.297, 1063.022 672.798, 1063.048 671.628 C 1063.086 669.927, 1063.438 670.184, 1064.798 672.909 C 1068.572 680.468, 1073.509 679.601, 1073.487 671.383 C 1073.480 668.697, 1073.128 665.375, 1072.705 664 C 1072.230 662.455, 1072.697 662.885, 1073.930 665.128 C 1076.056 668.999, 1078.070 670.294, 1080.509 669.358 C 1084.300 667.904, 1083.348 661.911, 1075.066 635.096 C 1072.280 626.073, 1070 618.431, 1070 618.113 C 1070 617.795, 1071.999 619.621, 1074.442 622.171 C 1079.516 627.466, 1084.755 629.737, 1087.951 628.026 C 1091.053 626.366, 1090.457 623.933, 1085.355 617.425 C 1082.801 614.166, 1078.352 607.900, 1075.470 603.500 C 1069.881 594.968, 1066.201 591.114, 1059 586.251 C 1053.080 582.254, 1050.666 579.433, 1048.602 574.103 C 1045.417 565.882, 1040.960 545.568, 1035.962 516.500 C 1030.028 481.993, 1027.077 471.774, 1018.054 454.500 C 1008.849 436.877, 1007.587 432.838, 1003.530 408 C 1001.598 396.175, 999.535 384.925, 998.946 383 C 998.356 381.075, 997.471 368.250, 996.979 354.500 C 995.974 326.421, 994.378 315.172, 989.861 304.320 C 983.602 289.285, 973.108 281.570, 953.918 277.896 C 933.798 274.043, 925.424 271.768, 917.082 267.888 C 901.474 260.628, 897.356 253.090, 896.287 229.820 C 895.710 217.272, 895.731 217.108, 898.274 214.086 C 900.812 211.070, 905 201.326, 905 198.438 C 905 197.620, 906.068 196.544, 907.373 196.048 C 913.254 193.812, 920.355 174.187, 917.867 167.049 C 917.283 165.372, 916.495 164, 916.116 164 C 915.738 164, 915.426 158.037, 915.422 150.750 C 915.418 141.167, 914.924 135.701, 913.637 131 C 909.495 115.870, 899.088 102.663, 886.311 96.323 C 880.052 93.218, 877.980 92.707, 870.311 92.380 C 864.425 92.128, 859.709 92.507, 856.105 93.519 M 857.618 95.112 C 850.752 96.724, 842.125 102.097, 836.298 108.392 C 826.315 119.175, 821.660 132.527, 821.619 150.500 C 821.589 163.290, 823.726 171.755, 830.075 184 C 835.044 193.584, 839.293 198.713, 843.313 199.979 C 846.249 200.904, 846.279 200.954, 843.696 200.620 C 840.893 200.257, 840.893 200.257, 843.112 202.620 C 847.280 207.056, 853.367 209.248, 859.756 208.614 C 867.398 207.856, 867.559 207.855, 874.656 208.590 C 880.164 209.160, 881.351 208.934, 885.924 206.445 C 892.071 203.099, 894.138 201.019, 891.372 200.961 C 890.134 200.935, 890.581 200.452, 892.691 199.534 C 896.753 197.767, 901.264 191.652, 905.994 181.500 C 911.705 169.240, 913.387 162.075, 913.387 150 C 913.386 122.561, 899.549 101.025, 878.380 95.511 C 872.023 93.855, 863.658 93.694, 857.618 95.112 M 377.798 101.879 C 363.236 106.668, 352.901 116.873, 348.821 130.491 C 345.838 140.444, 346.240 161.669, 349.472 164.901 C 350.843 166.271, 351 166.169, 351 163.911 C 351 162.526, 352.575 156.716, 354.500 151 C 358.411 139.387, 358.556 138.680, 356.468 141.441 C 355.470 142.761, 355 142.935, 355 141.984 C 355 141.215, 357.824 137.831, 361.275 134.464 C 368.468 127.445, 372.731 125.620, 385.863 123.938 C 397.177 122.489, 402.350 120.046, 404.360 115.204 C 405.701 111.971, 405.904 111.818, 405.952 114 C 406.034 117.689, 409.453 122.671, 413.206 124.569 C 418.678 127.338, 427.169 134.260, 430.172 138.400 C 433.403 142.856, 434.003 145.781, 430.911 142 C 429.433 140.194, 429.124 140.055, 429.798 141.500 C 431.495 145.143, 436 162.043, 436 164.767 C 436 167.445, 436 167.445, 437.517 165.279 C 441.620 159.421, 441.254 138.101, 436.849 126.326 C 432.783 115.459, 423.384 106.572, 412 102.831 C 402.708 99.778, 385.631 99.302, 377.798 101.879 M 838.848 119.373 C 837.539 129.494, 841.653 146.299, 847.081 153 C 848.540 154.802, 848.284 153.824, 846.167 149.500 C 841.859 140.704, 840.865 136.669, 840.135 125 C 839.568 115.930, 839.393 115.163, 838.848 119.373 M 403.619 119.551 C 402.639 122.104, 395.036 124.815, 385.553 125.993 C 367.412 128.248, 362.193 132.627, 356.641 150.254 C 351.978 165.060, 351.880 171.561, 356.040 190.013 C 360.029 207.703, 362.418 212.707, 370.816 220.956 C 379.608 229.592, 385.339 232.412, 394.103 232.412 C 399.879 232.412, 401.455 231.971, 406.462 228.956 C 413.508 224.713, 422.887 214.900, 425.781 208.742 C 426.967 206.220, 429.301 198.448, 430.968 191.471 C 435.060 174.351, 435.062 165.400, 430.981 151.275 C 429.321 145.529, 427.319 139.583, 426.532 138.062 C 424.651 134.425, 419.401 129.887, 413.113 126.465 C 410.026 124.785, 407.541 122.584, 406.774 120.851 C 405.352 117.639, 404.489 117.283, 403.619 119.551 M 895.189 122.792 C 894.837 130.783, 891.861 142.325, 888.361 149.276 C 886.445 153.081, 885.365 155.893, 885.961 155.524 C 887.968 154.284, 893.016 143.053, 894.561 136.393 C 895.404 132.759, 895.932 127.246, 895.736 124.143 C 895.433 119.362, 895.349 119.156, 895.189 122.792 M 831.004 144.600 C 830.999 145.910, 836.729 154, 837.661 154 C 838.018 154, 837.614 153.213, 836.764 152.250 C 835.914 151.287, 834.271 148.925, 833.113 147 C 831.955 145.075, 831.006 143.995, 831.004 144.600 M 824.012 153.544 C 823.986 155.831, 830.707 165.460, 834 167.853 C 837.440 170.354, 837.428 170.321, 833.315 165.949 C 831.013 163.502, 827.981 159.475, 826.577 157 C 825.173 154.525, 824.019 152.970, 824.012 153.544 M 857.500 155.871 C 848.132 160.150, 840.917 172.826, 842.437 182.334 C 843.899 191.474, 849.092 198.857, 856.680 202.580 C 862.212 205.295, 873.167 205.144, 878.595 202.279 C 883.348 199.770, 888.656 194.068, 890.625 189.355 C 892.616 184.590, 892.349 173.360, 890.129 168.500 C 887.738 163.265, 880.212 156.430, 875.355 155.081 C 869.588 153.480, 861.999 153.816, 857.500 155.871 M 909 155.723 C 909 156.304, 906.912 159.642, 904.361 163.140 C 901.252 167.401, 900.624 168.675, 902.456 167 C 905.698 164.036, 910.508 156.174, 909.621 155.288 C 909.280 154.946, 909 155.142, 909 155.723 M 857.168 158.603 C 848.542 162.902, 844.875 169.203, 844.875 179.729 C 844.875 199.013, 865.240 209.396, 881.135 198.218 C 889.747 192.161, 892.689 178.240, 887.515 168.029 C 881.870 156.890, 868.771 152.822, 857.168 158.603 M 363.250 158.220 C 359.628 159.967, 360.660 160.813, 365 159.655 C 367.985 158.858, 370.458 158.917, 374.750 159.887 C 386.079 162.448, 385.670 162.410, 384 160.752 C 380.505 157.282, 368.286 155.792, 363.250 158.220 M 408.376 158.086 C 404.897 159.095, 401.726 162.008, 404.128 161.989 C 404.882 161.983, 407.709 161.308, 410.409 160.489 C 416.203 158.732, 421.345 158.579, 424.151 160.081 C 425.262 160.676, 426.400 160.934, 426.679 160.655 C 426.958 160.376, 425.816 159.439, 424.143 158.574 C 420.846 156.869, 413.371 156.638, 408.376 158.086 M 344.667 166.667 C 342.419 168.915, 346.847 187.963, 350.575 192.083 C 352.780 194.519, 355.319 194.624, 354.619 192.250 C 354.336 191.287, 353.592 187.583, 352.966 184.017 C 352.268 180.041, 350.688 175.788, 348.880 173.017 C 345.977 168.569, 345.973 168.546, 348.636 171.500 L 351.339 174.500 350.589 171.506 C 349.413 166.810, 346.722 164.611, 344.667 166.667 M 437.481 169.391 C 435.380 174.419, 435.641 174.938, 438.540 171.500 C 440.915 168.684, 440.893 168.807, 438.181 173.500 C 435.317 178.458, 432.087 192.422, 433.483 193.814 C 434.866 195.194, 439.018 188.751, 441.045 182.079 C 443.531 173.892, 443.389 166.686, 440.731 166.182 C 439.498 165.948, 438.514 166.920, 437.481 169.391 M 818.433 168.411 C 816.679 175.400, 824.802 194.808, 829.019 193.705 C 830.414 193.340, 830.913 194.055, 831.403 197.119 C 832.131 201.670, 836.278 211.436, 837.912 212.446 C 838.724 212.947, 838.880 211.915, 838.460 208.824 C 837.947 205.040, 838.034 204.750, 839.164 206.500 C 840.027 207.838, 840.565 213.467, 840.788 223.500 C 841.114 238.136, 840.212 244.757, 836.563 254.500 C 835.164 258.236, 839.874 251.885, 843.048 245.757 C 846.957 238.208, 849 230.085, 849 222.090 C 849 217.036, 849.266 215.866, 850.202 216.802 C 851.138 217.738, 851.134 220.161, 850.183 227.752 C 847.821 246.603, 838.437 259.917, 821.363 268.645 L 813.254 272.790 819.030 273.926 C 835.612 277.188, 849.497 289.727, 854.890 306.310 C 858.565 317.611, 859.343 327.594, 858.601 353.961 C 856.264 437.012, 856.447 433.739, 853.564 444.500 C 850.453 456.112, 845.394 466.585, 834.538 483.885 C 827.356 495.329, 821.309 506.793, 822.147 507.372 C 822.341 507.505, 825.425 509.033, 829 510.766 C 837.708 514.988, 845.844 521.936, 852.560 530.883 C 859.036 539.512, 862.070 545.213, 865.313 554.842 L 867.666 561.829 868.922 556.927 C 871.642 546.313, 879.845 532.218, 888.870 522.653 C 893.677 517.557, 903.072 511.195, 908.540 509.332 L 912.941 507.832 909.339 500.666 C 907.357 496.725, 902.439 488.235, 898.408 481.801 C 889.278 467.224, 885.670 460.115, 882.545 450.540 C 878.743 438.894, 878.106 433.316, 877.574 407 C 877.301 393.525, 876.579 373.152, 875.968 361.726 C 873.797 321.094, 877.611 302.129, 890.831 287.825 C 897 281.151, 906.845 275.721, 916.067 273.907 L 922.022 272.735 917.052 270.432 C 909.907 267.122, 901.009 260.859, 896.743 256.138 C 889.160 247.744, 883.938 233.413, 884.122 221.500 C 884.214 215.548, 884.226 215.573, 885.542 224.587 C 887.206 235.992, 889.996 244.014, 894.650 250.777 C 898.082 255.766, 900.345 257.381, 898.146 253.274 C 897.588 252.230, 896.426 248.339, 895.565 244.626 C 893.168 234.287, 893.624 207.031, 896.168 208.604 C 896.670 208.914, 896.808 210.030, 896.473 211.084 C 896.139 212.138, 896.233 212.995, 896.683 212.989 C 897.861 212.973, 902.941 200.679, 903.376 196.791 C 903.672 194.147, 904.143 193.558, 905.771 193.796 C 908.398 194.179, 911.089 190.336, 913.859 182.246 C 916.117 175.651, 916.795 165.568, 914.939 166.187 C 914.356 166.381, 912.758 169.866, 911.390 173.930 C 906.307 189.024, 894.956 204.249, 885.503 208.651 C 880.175 211.132, 876.351 211.535, 871.458 210.131 C 869.670 209.619, 866.191 209.665, 862.965 210.245 C 853.166 212.007, 845.172 208.257, 836.699 197.923 C 830.487 190.348, 827.328 184.610, 823.869 174.622 C 820.866 165.949, 819.455 164.337, 818.433 168.411 M 364 172.463 C 364 174.140, 367.234 176.092, 370.851 176.597 C 373.646 176.988, 376.071 176.557, 379.150 175.120 L 383.500 173.090 376.500 173.295 C 372.650 173.408, 368.262 173.114, 366.750 172.642 C 365.238 172.169, 364 172.089, 364 172.463 M 418 173.136 C 416.625 173.691, 413.025 173.881, 410 173.558 C 404.500 172.970, 404.500 172.970, 408 174.943 C 412.244 177.335, 417.767 177.552, 420.777 175.443 C 424.910 172.549, 423.126 171.066, 418 173.136 M 387.905 205.682 C 386.181 206.407, 383.607 207, 382.185 207 C 380.328 207, 379.905 207.305, 380.684 208.084 C 381.335 208.735, 386.380 209.178, 393.306 209.192 C 405.623 209.216, 410.014 208.201, 403.995 206.720 C 395.682 204.675, 391.016 204.374, 387.905 205.682 M 388 207 C 388 207.569, 390.906 207.993, 394.750 207.985 C 399.477 207.974, 401.050 207.679, 400 207 C 398.017 205.719, 388 205.719, 388 207 M 393.500 215 L 389.500 215.716 393.500 215.843 C 395.700 215.912, 398.175 215.533, 399 215 C 400.787 213.845, 399.951 213.845, 393.500 215 M 867.488 375.500 C 867.488 464.050, 867.606 500.127, 867.750 455.671 C 867.894 411.215, 867.894 338.765, 867.750 294.671 C 867.606 250.577, 867.488 286.950, 867.488 375.500 M 365.556 224.664 C 366.968 238.532, 371.872 255.231, 380.414 275.261 C 384.392 284.589, 386.980 292.107, 386.994 294.377 C 386.997 294.860, 385.015 293.425, 382.590 291.190 C 377.770 286.747, 376.607 286.423, 362 285.462 C 345.335 284.365, 331.036 280.965, 328.392 277.471 C 327.433 276.203, 325.826 276.390, 316.392 278.864 L 305.500 281.721 313.500 283.440 C 317.900 284.385, 325.325 286.219, 330 287.515 C 338.819 289.960, 352.133 292.420, 362.500 293.521 C 371.642 294.491, 375.112 295.858, 379.733 300.308 C 384.449 304.848, 386.421 309.688, 387.963 320.500 C 389.265 329.634, 389.284 362.227, 387.992 369.040 C 384.133 389.392, 367.903 402, 345.566 402 C 332.257 402, 321.923 397.375, 316.321 388.909 C 314.884 386.737, 313.573 385.093, 313.410 385.257 C 313.246 385.420, 313.556 387.567, 314.098 390.027 C 315.036 394.287, 320.686 403.994, 322.229 403.998 C 322.631 403.999, 324.839 406.040, 327.137 408.533 C 330.413 412.087, 343.085 422, 344.352 422 C 344.494 422, 344.721 420.101, 344.858 417.780 C 345.287 410.515, 345.993 412.301, 346.164 421.083 C 346.352 430.685, 346.802 446.715, 347.498 468.627 C 347.816 478.612, 348.647 486.600, 349.944 492.127 C 352.931 504.861, 355.225 523.610, 354.840 532.148 C 354.421 541.416, 352.697 544, 346.929 544 C 338.882 544, 317.012 525.444, 313.760 515.858 L 312.282 511.500 311.147 515.500 C 310.522 517.700, 310.009 520.478, 310.006 521.673 C 309.998 524.553, 315.781 532.003, 323.365 538.886 C 348.414 561.619, 355.846 570.210, 370.549 593.432 C 376.144 602.269, 382.096 610.962, 383.775 612.750 C 386.566 615.721, 387.347 616, 392.867 616 C 396.189 616, 399.970 615.515, 401.271 614.923 C 402.571 614.330, 405.615 610.617, 408.035 606.673 C 426.254 576.969, 434.239 566.591, 450.490 551.500 C 469.490 533.856, 473.710 529.488, 475.895 525.206 C 477.999 521.081, 478.003 521.158, 475.333 513 C 475.028 512.069, 474.341 512.943, 473.521 515.302 C 471.483 521.167, 467.227 526.655, 460.053 532.668 C 443.054 546.917, 434.424 547.789, 432.456 535.456 C 431.564 529.868, 433.466 512.329, 436.608 497.174 C 438.317 488.928, 439.338 480.482, 439.531 473 C 439.694 466.675, 440.152 453.625, 440.550 444 C 440.948 434.375, 441.209 424.250, 441.130 421.500 C 441.051 418.750, 441.401 415.150, 441.908 413.500 C 442.716 410.865, 442.839 411.210, 442.914 416.335 L 443 422.170 450.750 416.746 C 455.012 413.763, 459.946 409.437, 461.713 407.133 C 463.479 404.828, 465.120 403.068, 465.358 403.221 C 465.595 403.375, 466.803 402.600, 468.041 401.500 C 470.291 399.500, 470.291 399.500, 469.198 401.586 C 467.610 404.618, 456.363 414.850, 449.454 419.550 C 443.500 423.601, 443.500 423.601, 442.730 431.050 C 442.306 435.148, 442.081 440.975, 442.230 444 L 442.500 449.500 451.049 441 C 455.750 436.325, 461.022 429.998, 462.763 426.940 C 465.701 421.781, 469.793 407.608, 470.426 400.399 C 470.575 398.693, 471.040 396.745, 471.458 396.068 C 472.254 394.780, 474.939 384, 474.464 384 C 474.313 384, 473.024 385.989, 471.600 388.420 C 468.456 393.784, 459.944 399.421, 452.460 401.096 C 449.525 401.753, 443.584 402.048, 438.872 401.771 C 419.484 400.631, 404.788 389.816, 400.456 373.500 C 396.959 360.327, 397.667 322.453, 401.640 310.151 C 403.610 304.053, 408.245 298.213, 412.542 296.418 C 414.298 295.684, 422.207 294.152, 430.117 293.013 C 438.028 291.873, 449.450 289.603, 455.500 287.968 C 464.359 285.574, 478.101 282.409, 481.815 281.908 C 482.192 281.857, 477.550 280.559, 471.500 279.023 C 460.960 276.347, 460.416 276.304, 458.500 277.990 C 457.400 278.958, 454.206 280.494, 451.403 281.404 C 445.361 283.366, 426.884 285.953, 418.718 285.980 C 411.516 286.005, 407.131 287.785, 403.574 292.129 L 400.814 295.500 401.372 291 C 401.678 288.525, 404.368 280.875, 407.348 274 C 416.024 253.985, 422 233.117, 422 222.834 L 422 218.584 417.518 222.982 C 413.008 227.408, 411.700 230.322, 407.587 245.107 C 404.148 257.469, 400.996 274.336, 400.930 280.733 C 400.883 285.268, 400.589 286.840, 400.040 285.500 C 399.276 283.637, 399.145 283.690, 398.125 286.276 C 397.523 287.802, 396.287 289.336, 395.379 289.685 C 393.478 290.414, 390.828 289.014, 390.163 286.929 C 389.832 285.890, 390.247 285.978, 391.683 287.250 C 392.769 288.212, 393.983 289, 394.380 289 C 395.784 289, 397.892 282.249, 400.018 270.943 C 402.479 257.853, 406.074 243.061, 408.780 234.892 L 410.638 229.284 405.611 231.892 C 398.403 235.631, 388.453 235.602, 381.750 231.820 C 379.137 230.347, 377 229.503, 377 229.945 C 377 230.387, 377.696 232.718, 378.546 235.124 C 383.345 248.705, 390.309 282.205, 389.340 287.048 C 388.165 292.926, 387.276 290.788, 386.710 280.721 C 386.308 273.576, 384.909 265.686, 382.061 254.500 C 375.854 230.123, 374.668 227.129, 369.447 222.664 L 364.962 218.828 365.556 224.664 M 420.515 243.408 C 419.562 251.827, 421.141 264.134, 424.039 270.869 C 425.186 273.534, 427.808 277.359, 429.866 279.369 C 433.609 283.024, 433.609 283.024, 441.554 281.603 C 451.070 279.903, 457.212 277.913, 457.717 276.368 C 457.921 275.746, 454.805 273.556, 450.794 271.502 C 436.172 264.015, 429.516 259.188, 426.026 253.542 C 424.851 251.641, 423.306 247.029, 422.593 243.293 L 421.297 236.500 420.515 243.408 M 364.715 243.476 C 363.568 254.581, 357.219 261.147, 338.334 270.756 C 333.205 273.365, 329.007 275.860, 329.005 276.301 C 328.996 277.716, 335.611 279.922, 344.526 281.477 C 352.948 282.945, 353.291 282.929, 356.099 280.930 C 362.731 276.207, 367.010 263.797, 366.985 249.356 C 366.966 238.826, 365.568 235.205, 364.715 243.476 M 417.219 252.510 C 416.123 256.796, 409.945 272.817, 404.656 285.086 L 403.110 288.672 407.725 286.336 C 410.609 284.876, 414.097 284, 417.030 284 C 419.610 284, 423.834 283.710, 426.417 283.356 L 431.114 282.713 428.165 279.606 C 422.566 273.710, 420.047 266.872, 419.099 255 L 418.500 247.500 417.219 252.510 M 368.148 258.309 C 366.872 267.416, 362.459 277.707, 358.488 280.830 C 356.065 282.737, 356.065 282.737, 360.672 283.369 C 363.206 283.716, 367.596 284, 370.428 284 C 373.603 284, 377.081 284.767, 379.500 286 C 381.658 287.100, 383.535 288, 383.672 288 C 383.810 288, 381.882 283.163, 379.389 277.250 C 376.895 271.337, 373.604 262.814, 372.075 258.309 L 369.295 250.118 368.148 258.309 M 804.500 275.075 C 802.850 275.572, 796.550 276.926, 790.500 278.084 C 784.450 279.242, 778.825 280.411, 778 280.683 C 777.175 280.955, 779.918 282.174, 784.095 283.391 C 806.077 289.797, 812.730 297.567, 819.635 324.898 C 824.823 345.431, 827.499 353.652, 833.054 366.128 C 838.699 378.807, 844.695 390.013, 851.443 400.500 L 855.948 407.500 856.007 393.500 C 856.039 385.800, 856.491 370.950, 857.010 360.500 C 859.779 304.767, 850.277 283.786, 818.540 275.547 C 811.935 273.833, 808.959 273.733, 804.500 275.075 M 915.645 275.543 C 901.425 279.085, 890.086 287.972, 884.013 300.335 C 878.425 311.712, 877.529 318.448, 877.740 347.500 C 877.844 361.800, 878.282 380.925, 878.714 390 L 879.500 406.500 885.648 396.500 C 899.206 374.448, 906.778 356.350, 913.467 330 C 916.051 319.825, 919.449 308.800, 921.020 305.500 C 926.312 294.382, 936.004 287.223, 950.992 283.362 C 958.203 281.505, 960.097 280.006, 955.250 279.992 C 953.737 279.988, 947.100 278.805, 940.500 277.364 C 924.934 273.965, 922.650 273.798, 915.645 275.543 M 295.822 284.357 C 288.152 287.546, 282.894 291.910, 278.141 299.027 C 270.717 310.144, 268.134 321.813, 267.412 347.500 L 266.878 366.500 270.665 359.500 C 273.509 354.243, 278.333 348.516, 290.038 336.500 C 305.525 320.602, 311.576 312.780, 320.841 296.678 L 325.678 288.273 315.589 285.692 C 310.040 284.273, 304.600 282.861, 303.500 282.554 C 302.400 282.247, 298.945 283.058, 295.822 284.357 M 481.500 282.964 C 480.400 283.440, 475.387 284.794, 470.360 285.972 L 461.221 288.114 465.727 295.807 C 475.598 312.657, 481.869 320.779, 497.500 336.959 C 509.912 349.807, 514.222 354.976, 516.718 360.010 L 519.936 366.500 519.968 353.211 C 520.030 327.603, 516.713 311.055, 509.184 299.407 C 504.635 292.368, 500.306 288.503, 493.500 285.403 C 487.153 282.512, 484.017 281.875, 481.500 282.964 M 765.156 284.750 C 762.217 286.222, 757.636 289.806, 754.977 292.715 C 744.218 304.488, 740.904 317.796, 739.470 355 L 738.873 370.500 742.686 363.500 C 746.520 356.464, 752.278 350.216, 771.718 332 C 776.708 327.325, 782.601 320.674, 784.814 317.220 C 789.268 310.269, 794.880 297.514, 795.696 292.486 C 796.223 289.240, 796.223 289.240, 785.360 285.620 C 779.385 283.629, 773.597 282.017, 772.498 282.037 C 771.399 282.058, 768.095 283.279, 765.156 284.750 M 953 284.200 C 949.975 285.287, 945.587 286.849, 943.250 287.671 C 938.279 289.419, 937.997 290.773, 940.868 299.116 C 945.416 312.336, 954.722 326.154, 964.787 334.634 C 980.192 347.612, 989.439 358.121, 993.355 367.102 C 994.774 370.356, 994.840 369.993, 994.910 358.500 C 995.166 316.413, 987.798 294.567, 970.181 285.177 C 963.403 281.564, 960.753 281.414, 953 284.200 M 321.315 299.250 C 318.126 304.887, 312.862 313.027, 309.618 317.338 C 303.026 326.096, 303.182 324.047, 308.085 337.500 C 309.767 342.114, 310.350 346.273, 310.607 355.500 C 310.790 362.100, 311.216 369.525, 311.553 372 C 312.987 382.539, 319.769 392.266, 328.761 396.682 C 334.059 399.283, 335.384 399.498, 346 399.475 C 359.363 399.445, 365.608 397.539, 373.949 390.946 C 384.897 382.292, 387.403 373.555, 387.269 344.500 C 387.163 321.230, 385.813 311.769, 381.565 304.521 C 378.107 298.620, 374.461 297.206, 355.662 294.475 C 346.773 293.183, 337.250 291.428, 334.500 290.574 C 331.750 289.720, 328.963 289.017, 328.307 289.011 C 327.650 289.005, 324.504 293.613, 321.315 299.250 M 450.512 291.120 C 446.669 292.148, 437.017 293.891, 429.063 294.994 C 412.740 297.256, 408.476 299.173, 405.135 305.751 C 401.320 313.264, 400.503 320.382, 400.519 346 C 400.533 369.478, 400.633 370.749, 402.923 376.475 C 407.367 387.589, 418.288 396.367, 431.086 399.112 C 438.788 400.764, 451.475 399.810, 457.500 397.125 C 471.232 391.007, 476.946 378.717, 476.983 355.225 C 476.996 346.257, 477.432 342.778, 479.111 338.225 C 482.738 328.390, 483.513 325.018, 482.468 323.613 C 481.936 322.897, 479.700 319.914, 477.500 316.984 C 475.300 314.054, 470.559 306.674, 466.963 300.585 C 463.368 294.495, 459.768 289.454, 458.963 289.382 C 458.159 289.310, 454.355 290.092, 450.512 291.120 M 796.583 295.250 C 795.687 300.918, 789.220 314.122, 783.606 321.749 L 779.068 327.913 784.133 333.455 C 796.004 346.444, 813.859 358.005, 819.760 356.524 C 825.280 355.139, 825.260 352.994, 819.528 331.215 C 814.082 310.523, 811.814 304.299, 807.950 299.437 C 805.093 295.843, 799.344 291, 797.934 291 C 797.561 291, 796.953 292.913, 796.583 295.250 M 930.659 295.069 C 924.653 300.356, 920.863 308.388, 916.961 324.101 C 915.267 330.921, 912.984 339.556, 911.886 343.291 C 909.670 350.833, 910.004 353.301, 913.555 355.628 C 915.719 357.046, 916.399 357.052, 920.410 355.685 C 928.605 352.893, 947.055 338.349, 953.009 329.988 C 954.907 327.322, 954.907 327.322, 951.190 322.375 C 945.960 315.415, 940.445 304.570, 938.406 297.237 C 937.452 293.807, 936.359 291, 935.977 291 C 935.594 291, 933.201 292.831, 930.659 295.069 M 294.500 334 C 287.554 341, 287.554 341, 290.826 341 C 296.806 341, 301.864 344.855, 305.895 352.485 L 308 356.470 308 350.045 C 308 344.079, 303.566 327, 302.017 327 C 301.703 327, 298.320 330.150, 294.500 334 M 481.748 336.253 C 479.982 342.184, 479.025 347.651, 479.077 351.500 C 479.121 354.800, 479.412 356.825, 479.722 356 C 480.032 355.175, 481.811 352.182, 483.675 349.349 C 487.242 343.926, 491.780 341, 496.624 341 C 499.328 341, 499.154 340.705, 492.500 334 C 488.680 330.150, 485.317 327.001, 485.027 327.003 C 484.737 327.004, 483.261 331.167, 481.748 336.253 M 770.842 335.739 C 764.997 341.814, 764.220 343.109, 763.191 348.500 C 760.719 361.449, 758.807 385.581, 758.476 408 C 758.154 429.886, 757.068 444.228, 755.051 453.250 C 754.590 455.313, 754.343 457, 754.502 457 C 755.457 457, 761.620 445.916, 765.008 438.104 C 773.909 417.581, 780.161 393.684, 780.339 379.500 C 780.388 375.650, 779.464 367.325, 778.286 361 C 777.108 354.675, 775.891 346.575, 775.583 343 C 775.022 336.500, 775.022 336.500, 776.408 341.500 C 777.171 344.250, 778.078 348.143, 778.424 350.152 C 778.960 353.261, 779.656 354.045, 783.097 355.422 C 788.953 357.765, 801.415 359.264, 808.348 358.460 C 814.343 357.764, 814.343 357.764, 811.037 356.373 C 805.418 354.011, 794.896 346.023, 785.924 337.309 L 777.348 328.979 770.842 335.739 M 948.500 336.754 C 940.679 345.121, 933.907 350.585, 925.999 354.910 L 920.683 357.817 926.275 358.515 C 933.173 359.377, 947.133 357.597, 951.904 355.247 C 955.128 353.660, 955.567 352.924, 956.707 347.195 C 957.397 343.727, 958.420 340.127, 958.979 339.195 C 960.257 337.065, 959.723 341.082, 955.906 362.285 C 953.359 376.433, 953.170 378.921, 954.082 386.285 C 956.013 401.877, 960.987 419.630, 968.338 437.159 C 973.362 449.139, 979.479 459.506, 978.569 454.500 C 976.280 441.905, 974.999 425.318, 974.995 408.199 C 974.989 386.278, 972.903 358.865, 970.404 347.878 C 968.875 341.154, 968.370 340.309, 962.757 335.089 C 959.452 332.015, 956.467 329.447, 956.124 329.383 C 955.781 329.319, 952.350 332.636, 948.500 336.754 M 287.278 343.136 C 283.306 344.254, 275.409 353.697, 271.061 362.528 C 267.699 369.356, 262.113 391.218, 258.873 410.227 C 256.219 425.801, 256.465 450.008, 259.322 454.368 C 260.270 455.816, 261.709 457, 262.520 457 C 266.803 457, 278.879 441.661, 285.581 427.706 C 295.596 406.857, 306.020 361.687, 303.081 351.877 C 301.122 345.338, 293.816 341.297, 287.278 343.136 M 492.450 343.431 C 490.773 344.148, 488.186 346.179, 486.700 347.944 C 484.403 350.675, 484.001 352.074, 484.006 357.327 C 484.024 376.509, 494.441 415.612, 504.160 432.986 C 508.624 440.965, 516.755 451.711, 520.475 454.549 C 527.728 460.081, 529.214 457.281, 529.784 437 C 530.258 420.161, 529.115 411.410, 522.945 384.636 C 519.295 368.795, 515.705 360.064, 509.561 352.080 C 502.747 343.223, 498.250 340.951, 492.450 343.431 M 754.612 350.177 C 748.178 357.226, 742.442 366.676, 739.428 375.191 C 735.665 385.820, 728.703 426.418, 727.627 444 L 727.046 453.500 730.834 443 C 735.926 428.888, 742.099 417.318, 749.649 407.735 C 756.654 398.844, 756.270 400.272, 758.053 376.500 C 759.141 362.008, 761.055 348.372, 762.511 344.750 C 763.954 341.158, 760.975 343.205, 754.612 350.177 M 971.396 344.750 C 973.515 351.736, 975.338 366.855, 976.589 387.798 C 977.323 400.093, 976.654 398.494, 986.360 411.159 C 992.551 419.236, 998.932 431.922, 1003.047 444.332 C 1004.821 449.683, 1006.395 453.935, 1006.544 453.780 C 1006.693 453.626, 1006.202 447.200, 1005.454 439.500 C 1002.762 411.811, 996.577 378.125, 992.584 369.403 C 989.082 361.752, 982.971 353.168, 977.171 347.750 C 971.670 342.612, 970.575 342.043, 971.396 344.750 M 305.030 360.243 C 304.966 372.354, 297.326 403.997, 290.073 422.192 C 287.347 429.030, 285.736 437.607, 284.617 451.250 C 284.118 457.320, 285.320 459.150, 286.367 453.916 C 286.706 452.220, 289.204 445.807, 291.919 439.666 C 298.986 423.676, 305.638 403.576, 308.070 390.866 C 310.067 380.425, 310.097 379.363, 308.678 369.024 C 306.877 355.901, 305.076 351.566, 305.030 360.243 M 953.332 356.068 C 949.563 359.837, 926.219 361.309, 916 358.422 C 912.975 357.568, 909.917 356.785, 909.204 356.684 C 908.446 356.576, 905.529 361.680, 902.168 369 C 896.864 380.549, 892.177 389.029, 882.546 404.500 C 878.811 410.500, 878.811 410.500, 879.415 421.838 C 880.711 446.166, 884.534 456.913, 901.297 483.344 C 905.079 489.308, 909.427 496.839, 910.960 500.079 L 913.746 505.970 914.969 499.753 C 916.532 491.805, 919.366 484.327, 926.992 468.017 C 932.203 456.873, 933.345 453.387, 934.631 444.707 C 935.951 435.791, 939.672 420.163, 948.488 386.500 C 951.357 375.546, 955.310 355.976, 954.764 355.430 C 954.545 355.212, 953.901 355.499, 953.332 356.068 M 480.248 359 C 479.621 360.925, 478.809 367, 478.444 372.500 C 477.340 389.160, 481.822 407.654, 493.873 436.161 C 497.672 445.147, 501.002 453.400, 501.274 454.500 C 501.546 455.600, 501.820 453.984, 501.884 450.909 C 502.086 441.176, 499.883 428.896, 496.251 419.514 C 489.312 401.590, 484.794 383.810, 482.652 366 C 481.451 356.014, 481.334 355.671, 480.248 359 M 780.507 362.659 C 782.192 371.467, 788.132 396.270, 792.083 411 C 796.215 426.404, 798.896 438.795, 800.028 447.718 C 800.753 453.436, 802.338 458.030, 807.107 468.229 C 813.626 482.171, 818.304 494.923, 819.503 502.020 C 820.231 506.329, 820.231 506.329, 824.927 497.415 C 827.509 492.512, 832.474 484.032, 835.959 478.571 C 849.465 457.414, 853.927 444.183, 854.732 422.908 L 855.246 409.315 849.096 399.651 C 843.110 390.244, 830.551 365.899, 828.197 359.138 C 827.278 356.499, 826.647 355.932, 825.263 356.500 C 819.651 358.805, 812.324 359.978, 803.468 359.988 C 794.620 359.999, 790.157 359.295, 781.349 356.501 C 779.207 355.821, 779.203 355.848, 780.507 362.659 M 370.137 404.013 C 357.372 410.402, 354.672 412.809, 352.890 419.381 C 351.358 425.032, 352.502 436.773, 354.905 440.058 C 356.542 442.296, 356.607 442.921, 355.423 445.058 C 352.694 449.985, 354.601 467.899, 358.083 470.051 C 358.959 470.593, 358.842 471.387, 357.633 473.114 C 354.277 477.906, 356.159 495.659, 360.581 500.914 C 362.676 503.404, 362.793 503.927, 361.492 505.007 C 357.749 508.113, 361.111 539.843, 367.212 559 C 370.976 570.816, 374.011 576.898, 378.785 582.189 C 383.327 587.223, 387.331 589, 394.130 589 C 407.158 589, 415.540 577.432, 422.408 549.973 C 425.075 539.307, 427.981 520.401, 427.937 514 C 427.923 512.075, 427.283 508.734, 426.514 506.576 C 425.195 502.872, 425.248 502.494, 427.461 499.864 C 432.076 494.380, 433.197 477.085, 429.223 472.694 C 427.662 470.969, 427.660 470.770, 429.196 469.910 C 430.106 469.401, 431.406 467.301, 432.086 465.242 C 433.808 460.028, 433.606 447.546, 431.755 444.758 C 430.423 442.751, 430.480 442.269, 432.360 439.726 C 433.862 437.695, 434.549 434.983, 434.832 429.964 C 435.660 415.317, 433.290 411.874, 416.705 403.623 C 404.953 397.778, 401.710 397.031, 398.441 399.417 C 396.710 400.681, 396.465 402.344, 396.177 414.776 C 395.863 428.340, 395.920 428.796, 398.295 431.556 C 400.735 434.394, 400.735 434.394, 398.618 436.106 C 396.690 437.665, 396.470 438.998, 396.170 450.941 C 395.879 462.494, 396.072 464.456, 397.778 467.348 C 399.694 470.596, 399.694 470.659, 397.781 473.022 C 396.057 475.151, 395.881 476.747, 396.173 487.604 C 396.437 497.443, 396.834 500.165, 398.230 501.704 C 399.767 503.401, 399.793 503.779, 398.459 505.113 C 395.744 507.827, 395.012 518.054, 395.006 553.333 C 395.002 577.428, 394.673 588.058, 393.940 587.813 C 393.225 587.575, 392.893 578.339, 392.920 559.480 C 392.970 525.025, 391.938 508.694, 389.545 506.050 C 387.941 504.277, 387.946 504.012, 389.632 501.439 C 393.331 495.794, 392.387 472.853, 388.393 471.321 C 387.156 470.846, 387.298 470.312, 389.196 468.292 C 391.364 465.984, 391.500 465.050, 391.500 452.500 C 391.500 439.892, 391.372 439.025, 389.160 436.670 C 386.820 434.180, 386.820 434.180, 388.838 432.162 C 391.432 429.568, 392.339 423.301, 391.824 411.527 C 391.135 395.776, 388.450 394.846, 370.137 404.013 M 380.663 400.537 C 372.491 403.559, 358.756 411.534, 356.664 414.472 C 352.812 419.882, 353.404 438.790, 357.474 440.352 C 358.273 440.658, 363.331 439.364, 368.713 437.476 C 374.096 435.588, 379.491 434.034, 380.703 434.022 C 384.190 433.987, 387.683 431.991, 388.890 429.343 C 390.437 425.947, 390.300 405.152, 388.710 402.009 C 387.175 398.975, 385.644 398.694, 380.663 400.537 M 399.655 400.829 C 398.294 402.332, 398 404.961, 398 415.606 C 398 431.297, 398.496 432.341, 406.758 434.047 C 409.916 434.699, 416.252 436.587, 420.838 438.243 C 431.912 442.240, 432.373 441.833, 432.836 427.645 C 433.160 417.720, 433.078 417.246, 430.496 414.178 C 427.973 411.180, 405.572 399, 402.581 399 C 401.882 399, 400.565 399.823, 399.655 400.829 M 317.020 400.500 C 317.019 401.050, 318.112 406.322, 319.449 412.217 C 322.325 424.893, 325.628 430.364, 337.413 441.975 L 345 449.450 345 439.850 C 345 425.140, 344.789 424.605, 336.605 418.502 C 328.364 412.357, 323.526 407.913, 319.728 403 C 318.240 401.075, 317.021 399.950, 317.020 400.500 M 751.242 408.266 C 744.837 415.861, 735.375 434.571, 730.608 449.067 C 728.696 454.878, 725.753 466.474, 724.066 474.836 C 718.484 502.502, 702.344 557.374, 693.570 578.512 C 689.153 589.153, 690.830 582.720, 698.434 559.855 C 715.843 507.500, 723.598 475.473, 725.518 448 L 726.182 438.500 717.576 455.500 C 707.345 475.709, 705.292 482.471, 700.481 511.785 C 695.226 543.813, 692.751 555.715, 687.797 572.799 L 685.680 580.098 690.020 584.521 C 695.118 589.714, 699.470 592, 704.264 592 C 707.726 592, 707.726 592, 711.009 582.750 C 716.168 568.212, 724.907 548.397, 736.831 524.198 C 749.289 498.918, 753.872 486.025, 757.010 467.437 C 758.211 460.321, 759.414 454.050, 759.684 453.500 C 759.953 452.950, 759.252 453.625, 758.125 455 C 755.570 458.118, 753.893 461.576, 750.578 470.559 C 749.146 474.441, 744.533 483.666, 740.329 491.059 C 725.297 517.489, 721.881 526.186, 713.952 558.215 C 708.667 579.564, 706.086 588.419, 705.358 587.691 C 705.117 587.451, 707.813 575.609, 711.350 561.377 C 719.939 526.809, 724.367 515.078, 736.592 494.500 C 746.622 477.618, 750.729 466.956, 753.496 450.621 C 755.669 437.798, 758.183 401.965, 756.906 402.016 C 756.683 402.025, 754.134 404.838, 751.242 408.266 M 977 414.900 C 977 437.208, 980.737 462.442, 985.559 472.688 C 986.901 475.542, 988 478.084, 988 478.338 C 988 478.591, 991.884 485.692, 996.631 494.116 C 1010.110 518.039, 1013.607 527.216, 1021.922 560.500 C 1024.670 571.500, 1027.588 582.703, 1028.405 585.396 C 1029.223 588.089, 1029.510 589.889, 1029.044 589.396 C 1027.668 587.942, 1025.459 580.581, 1020.053 559.433 C 1011.827 527.255, 1006.979 514.692, 994.744 493.846 C 987.117 480.851, 984.011 474.544, 981.524 467 C 979.546 461.002, 975.436 453, 974.334 453 C 974.076 453, 974.106 453.788, 974.401 454.750 C 974.695 455.712, 975.890 462.125, 977.057 469 C 980.167 487.330, 984.637 499.580, 998.404 527.500 C 1008.341 547.652, 1022.714 581.034, 1025.423 590.250 C 1026.545 594.068, 1035.814 591.736, 1042.361 585.988 C 1047.914 581.112, 1048.163 580.191, 1045.883 572.915 C 1041.695 559.547, 1037.834 541.593, 1033.429 515 C 1028.030 482.414, 1025.279 473.297, 1014.542 452.417 C 1010.394 444.351, 1007 437.960, 1007 438.215 C 1007 444.006, 1010.677 473.558, 1012.487 482.319 C 1016.590 502.171, 1030.668 549.438, 1039.159 571.872 C 1041.319 577.576, 1042.917 582.749, 1042.711 583.366 C 1042.160 585.021, 1035.025 566.006, 1028.691 546 C 1017.771 511.506, 1011.901 489.696, 1008.102 469.500 C 1003.765 446.438, 993.698 422.195, 983.027 409.110 L 977 401.721 977 414.900 M 323.330 429.209 C 323.647 430.149, 324.625 435.760, 325.503 441.678 C 327.101 452.438, 327.101 452.438, 335.542 464.115 C 340.185 470.537, 344.260 476.514, 344.598 477.396 C 346.020 481.100, 347.172 478.752, 346.634 473.250 C 346.325 470.087, 345.782 463.900, 345.428 459.500 C 344.783 451.500, 344.783 451.500, 335.549 442 C 330.470 436.775, 325.513 431.375, 324.534 430 C 323.555 428.625, 323.013 428.269, 323.330 429.209 M 462.478 430.070 C 462.117 431.208, 457.773 436.270, 452.826 441.320 C 447.879 446.369, 443.391 451.312, 442.852 452.304 C 442.313 453.296, 441.630 459.821, 441.334 466.804 L 440.796 479.500 443.603 475.500 C 445.147 473.300, 448.836 468.360, 451.801 464.523 C 459.112 455.059, 460.473 451.978, 461.973 441.500 C 462.682 436.550, 463.642 431.488, 464.106 430.250 C 464.594 428.949, 464.568 428, 464.043 428 C 463.543 428, 462.839 428.931, 462.478 430.070 M 531.944 438 C 531.611 449.429, 530.341 465.672, 530.168 460.727 C 530 455.954, 530 455.954, 527.567 457.548 C 525.645 458.807, 524.688 458.903, 523.009 458.005 C 520.973 456.915, 520.913 457.027, 521.557 460.684 C 522.594 466.575, 525.340 472.068, 529.713 477 C 536.918 485.127, 545.562 502.753, 562.079 543 C 566.704 554.268, 569.532 559.729, 572.441 563 C 575.497 566.438, 575.681 566.807, 573.221 564.563 C 569.239 560.932, 569.209 561.807, 573 571 C 574.650 575.001, 575.980 578.776, 575.956 579.388 C 575.883 581.228, 571.871 573.003, 568.937 565 C 564.855 553.860, 552.908 524.967, 545.483 508.273 C 534.081 482.639, 527.987 474.819, 513.765 467.574 C 509.769 465.538, 507.324 464.126, 508.332 464.436 C 509.339 464.746, 510.716 465, 511.391 465 C 512.065 465, 515.176 466.541, 518.303 468.424 C 522.707 471.076, 523.758 471.416, 522.965 469.935 C 522.403 468.884, 521.065 465.182, 519.992 461.710 C 518.683 457.473, 516.220 453.051, 512.501 448.266 C 509.454 444.343, 505.805 439.192, 504.392 436.817 C 502.801 434.143, 502.085 433.451, 502.511 435 C 502.889 436.375, 503.350 444.300, 503.536 452.610 C 503.890 468.494, 505.532 477.730, 509.085 483.827 C 510.151 485.656, 510.792 487.527, 510.510 487.984 C 510.228 488.441, 511.562 492.473, 513.476 496.944 C 516.961 505.087, 519.308 509.479, 537.508 541.930 C 542.885 551.517, 550.244 565.457, 553.861 572.907 C 560.437 586.453, 560.437 586.453, 561.081 597.476 C 561.822 610.142, 562.982 614.985, 570.069 635 C 576.349 652.737, 580.632 662, 582.551 662 C 584.407 662, 584.375 660.607, 582.363 653.932 C 579.651 644.928, 577.163 634.528, 577.612 634.067 C 578.669 632.980, 580.272 636.562, 584.961 650.483 C 589.835 664.954, 592.599 669.984, 594.899 668.562 C 596.587 667.519, 596.314 665.839, 591.855 649.834 C 588.102 636.359, 587.527 631.948, 589.867 634.567 C 590.326 635.080, 593.286 643.150, 596.445 652.500 C 602.369 670.034, 603.292 672, 605.603 672 C 608.443 672, 607.873 666.937, 603.075 649.556 C 600.350 639.687, 598.346 631.250, 598.620 630.806 C 599.633 629.166, 600.616 630.097, 601.728 633.750 C 603.632 640.001, 610.841 659.834, 611.992 661.985 C 613.828 665.416, 616.002 664.472, 615.985 660.250 C 615.966 655.348, 614.185 647.966, 608.075 627.455 C 605.315 618.190, 603.242 610.425, 603.468 610.198 C 603.694 609.972, 607.258 612.985, 611.388 616.894 C 617.321 622.510, 619.536 624, 621.948 624 C 623.627 624, 625 623.526, 625 622.947 C 625 622.367, 622.588 618.871, 619.641 615.176 C 616.693 611.482, 612.250 605.319, 609.767 601.480 C 603.936 592.466, 600.614 589.429, 591.211 584.520 C 584.188 580.854, 583.273 580.015, 580.806 574.991 C 577.434 568.123, 569.174 539.768, 565.516 522.500 C 557.653 485.377, 552.676 470.285, 543.091 454.500 C 536.984 444.441, 534.991 440.534, 533.399 435.500 C 532.134 431.500, 532.134 431.500, 531.944 438 M 252.787 437.666 C 251.845 440.325, 248.739 446.550, 245.885 451.500 C 233.625 472.765, 230.201 482.458, 222.567 517.500 C 217.385 541.290, 210.456 565.291, 206.057 574.691 C 203.236 580.720, 202.753 581.194, 196.639 583.937 C 188.861 587.427, 183.165 592.394, 177.686 600.464 C 175.432 603.784, 170.755 610.170, 167.294 614.655 C 163.832 619.140, 161 623.078, 161 623.405 C 161 624.537, 166.110 623.995, 168.800 622.577 C 170.285 621.794, 173.960 618.644, 176.966 615.577 C 179.972 612.510, 182.745 610, 183.129 610 C 183.512 610, 183.418 611.237, 182.919 612.750 C 181.314 617.617, 173.238 644.321, 171.654 650 C 170.810 653.025, 169.981 657.300, 169.810 659.500 C 169.545 662.921, 169.786 663.500, 171.474 663.500 C 173.013 663.500, 174.076 661.843, 176.287 656 C 185.447 631.789, 186.284 629.884, 187.306 630.906 C 188.032 631.632, 187.983 633.100, 187.143 635.725 C 183 648.673, 178 666.647, 178 668.592 C 178 671.669, 179.731 672.553, 181.905 670.586 C 182.884 669.700, 186.541 661.106, 190.033 651.488 C 193.741 641.272, 196.913 634, 197.659 634 C 198.362 634, 198.746 634.563, 198.511 635.250 C 195.797 643.219, 190 664.460, 190 666.436 C 190 669.376, 191.158 669.699, 193.457 667.400 C 195.395 665.462, 196.969 661.842, 202.108 647.500 C 206.208 636.058, 207.542 633.209, 208.398 634.065 C 209.036 634.702, 205.553 648.432, 203.520 653.297 C 201.821 657.363, 201.508 662, 202.932 662 C 205.323 662, 209.371 653.585, 216.890 632.987 C 223.364 615.250, 224.730 609.677, 225.823 596.539 C 226.734 585.577, 226.734 585.577, 234.944 569.373 C 239.459 560.460, 248.356 544.018, 254.715 532.834 C 267.181 510.909, 275.938 493.237, 276.488 488.898 C 276.676 487.408, 277.497 485.133, 278.311 483.844 C 281.479 478.826, 283.376 467.918, 283.153 456 C 283.035 449.675, 283.365 442.250, 283.887 439.501 C 284.408 436.751, 284.695 434.362, 284.525 434.191 C 284.354 434.021, 282.835 436.271, 281.149 439.191 C 279.462 442.111, 276.028 446.975, 273.517 450 C 270.539 453.587, 268.274 457.678, 267.004 461.762 C 265.934 465.206, 264.557 468.959, 263.945 470.103 C 262.924 472.011, 263.212 471.960, 267.426 469.491 C 271.970 466.828, 282.336 463.140, 280.468 464.851 C 279.935 465.338, 277.293 466.559, 274.595 467.564 C 266.713 470.499, 258.835 476.975, 253.639 484.792 C 246.822 495.045, 237.862 514.870, 221.002 557 C 216.489 568.275, 212.570 578.063, 212.292 578.750 C 212.014 579.438, 211.410 580, 210.950 580 C 210.490 580, 211.442 576.778, 213.066 572.839 C 214.690 568.901, 216.199 564.689, 216.418 563.479 C 216.637 562.269, 217.705 559.529, 218.791 557.390 C 219.877 555.250, 224.222 544.950, 228.447 534.500 C 239.052 508.269, 250.729 484.748, 256.425 478.142 C 258.966 475.194, 261.560 471.823, 262.188 470.649 C 263.578 468.052, 266.984 457, 266.395 457 C 266.163 457, 265.098 457.546, 264.029 458.214 C 262.389 459.238, 261.696 459.063, 259.599 457.093 C 257.113 454.757, 257.113 454.757, 256.741 460.129 C 256.523 463.280, 256.253 460.954, 256.086 454.500 C 255.930 448.450, 255.509 441.100, 255.151 438.166 L 254.500 432.833 252.787 437.666 M 377.500 436.548 C 366.324 439.609, 358.285 443.100, 357.035 445.434 C 355.140 448.976, 356.014 463.850, 358.324 467.374 C 360.148 470.156, 360.148 470.156, 373.041 469.828 C 389.951 469.398, 389.398 469.946, 389.825 453.197 C 390.125 441.413, 389.989 440.256, 388.002 437.730 C 385.610 434.689, 384.675 434.583, 377.500 436.548 M 400.235 436.765 C 397.144 439.856, 396.186 457.253, 398.617 466.142 C 399.435 469.133, 404.089 470.079, 416.527 469.784 C 428.477 469.500, 428.477 469.500, 429.858 466.615 C 430.668 464.921, 431.293 460.084, 431.369 454.902 C 431.530 444.028, 431.049 443.441, 418.500 439.194 C 405.424 434.770, 402.605 434.395, 400.235 436.765 M 326.495 455.993 C 327.633 457.833, 324.070 474.677, 319.018 491.341 C 316.258 500.446, 314.010 508.932, 314.022 510.198 C 314.103 518.737, 329.365 535.293, 342.520 541.112 C 350.711 544.735, 353.183 542.082, 353.103 529.754 C 352.999 513.972, 347.760 485.671, 343.644 478.666 C 342.298 476.375, 338.227 470.522, 334.598 465.660 C 330.969 460.797, 328 456.410, 328 455.910 C 328 455.409, 327.523 455, 326.941 455 C 326.359 455, 326.158 455.447, 326.495 455.993 M 455.567 461.724 C 441.002 481.730, 440.776 482.233, 437.025 503 C 432.945 525.591, 433.221 540.720, 437.744 542.455 C 443.821 544.787, 465.742 528.361, 470.972 517.557 C 473.769 511.780, 473.542 508.304, 469.466 494.483 C 464.315 477.021, 461.914 467.255, 461.163 460.724 L 460.500 454.949 455.567 461.724 M 800 461.873 C 800 471.174, 792.041 495.699, 780.598 521.662 C 776.240 531.549, 776.115 532.598, 779.911 527.436 C 787.073 517.697, 803.195 508.520, 814.413 507.796 C 818.995 507.500, 818.995 507.500, 818.370 504 C 817.090 496.838, 812.626 484.152, 807.393 472.808 C 804.427 466.377, 802 460.666, 802 460.117 C 802 459.567, 801.550 458.840, 801 458.500 C 800.397 458.127, 800 459.467, 800 461.873 M 932.543 459.500 C 932.109 460.600, 929.326 466.809, 926.358 473.298 C 921.439 484.056, 917.254 496.367, 915.666 504.750 C 915.050 508, 915.050 508, 919.550 508 C 929.238 508, 941.359 514.334, 951.450 524.669 L 957.084 530.440 954.441 524.470 C 943.689 500.193, 935.640 476.196, 934.120 463.889 C 933.543 459.210, 933.120 458.035, 932.543 459.500 M 371.559 471.748 C 365.127 471.938, 360.036 472.555, 359.204 473.246 C 356.912 475.148, 357.923 493.470, 360.570 498.007 C 362.608 501.500, 362.608 501.500, 374.554 501.789 C 390.051 502.163, 390 502.212, 390 486.844 C 390 476.567, 389.852 475.761, 387.545 473.455 C 386.195 472.105, 384.508 471.096, 383.795 471.212 C 383.083 471.329, 377.577 471.570, 371.559 471.748 M 400.038 472.769 C 397.746 474.624, 397.618 475.313, 397.561 486.113 C 397.474 502.320, 397.186 502, 411.880 502 C 424.763 502, 425.665 501.642, 427.954 495.621 C 429.799 490.769, 430.437 478.469, 429.021 475.051 C 427.757 472, 427.757 472, 418.629 471.989 C 413.608 471.983, 407.915 471.716, 405.977 471.395 C 403.348 470.960, 401.840 471.309, 400.038 472.769 M 265.568 498.656 C 249.547 516.561, 241.534 530.229, 227.240 564.028 C 219.749 581.741, 218.150 586.127, 219.773 584.500 C 220.322 583.950, 223.805 576.300, 227.513 567.500 C 242.931 530.909, 250.985 517.013, 266.912 499.519 C 275.051 490.581, 276.986 488, 275.552 488 C 275.305 488, 270.812 492.795, 265.568 498.656 M 511.050 488.182 C 511.022 488.557, 515.226 493.607, 520.391 499.403 C 535.444 516.298, 543.654 530.278, 556.861 561.500 C 566.564 584.441, 566.984 585.350, 567.595 584.739 C 568.388 583.945, 554.259 550.480, 547.105 536.209 C 539.149 520.337, 530.930 508.398, 520.114 497 C 515.156 491.775, 511.077 487.807, 511.050 488.182 M 362.898 505.628 C 360.995 507.930, 361.294 522.530, 363.510 535.500 C 368.640 565.512, 376.386 582.123, 387.314 586.539 L 391.128 588.080 390.814 549.112 C 390.426 501.012, 391.680 504.638, 375.293 504.219 C 365.961 503.980, 364.085 504.193, 362.898 505.628 M 400.780 505.064 C 399.833 505.615, 398.618 507.739, 398.079 509.783 C 397.540 511.827, 396.783 530.038, 396.397 550.250 C 395.695 587, 395.695 587, 397.979 587 C 409.039 587, 419.714 564.289, 424.536 530.500 C 426.227 518.650, 426.402 508.620, 424.965 505.934 C 424.039 504.203, 422.802 504.003, 413.215 504.030 C 407.322 504.047, 401.726 504.512, 400.780 505.064 M 805.323 512.017 C 790.028 519.779, 778.250 548.016, 775.505 583.500 C 774.716 593.696, 776.318 604.729, 779.672 612.203 C 786.722 627.914, 806.513 637.077, 827.104 634.165 C 841.675 632.105, 851.626 626.211, 858.983 615.285 C 865.578 605.491, 866.290 601.641, 865.790 578.500 C 865.414 561.115, 865.162 558.930, 862.830 552.794 C 856.655 536.553, 842.711 519.606, 830.500 513.500 C 822.436 509.468, 811.603 508.830, 805.323 512.017 M 908.844 511.394 C 901.853 513.891, 896.241 517.965, 888.596 526.092 C 882.560 532.508, 879.846 536.443, 875.983 544.383 C 869.362 557.992, 868.030 564.288, 868.027 582 C 868.024 597.365, 869.051 603.379, 873.048 611.381 C 879.618 624.537, 893.092 632.856, 910.500 634.503 C 918.530 635.263, 930.914 633.105, 937.342 629.825 C 944.213 626.320, 950.425 619.603, 954.055 611.753 C 957.149 605.060, 957.440 603.568, 957.819 592.439 C 959 557.714, 945.062 519.385, 928.521 511.871 C 923.764 509.710, 914.207 509.478, 908.844 511.394 M 792 518.356 C 785.243 523.321, 776.977 532.835, 774.242 538.795 C 770.931 546.010, 764.565 571.776, 762.333 587 C 760.829 597.258, 760.500 605.777, 760.500 634.500 C 760.500 675.176, 761.202 684.079, 768.183 732 C 773.650 769.524, 775.210 793.372, 773.155 807.968 C 772.106 815.418, 772.311 817.980, 773.670 814.393 C 774.064 813.352, 775.821 810.475, 777.574 808 C 786.597 795.258, 792.380 777.250, 799.018 741.225 C 804.806 709.809, 807.981 679.245, 807.976 655 C 807.972 636.045, 807.792 635.239, 803.373 634.410 C 795.034 632.846, 786.551 641.477, 781.628 656.535 C 775.935 673.950, 774.925 697.536, 777.990 741.500 C 780.357 775.443, 780.240 788.027, 777.432 801.744 C 775.056 813.355, 774.042 812.621, 776.119 800.794 C 778.412 787.744, 778.470 770.197, 776.300 746 C 774.834 729.646, 773.847 658.477, 774.061 584.500 C 774.127 561.691, 783.301 531.893, 793.997 519.741 C 798.884 514.189, 798.260 513.756, 792 518.356 M 938.739 518.250 C 947.248 527.080, 954.181 544.781, 958.029 567.500 C 959.929 578.720, 960.126 582.348, 959.470 594 C 959.052 601.425, 958.887 616.050, 959.105 626.500 C 959.998 669.433, 959.294 726.344, 957.640 744.983 C 955.475 769.385, 955.559 790.577, 957.874 803.754 C 960.022 815.986, 961.509 818.550, 960.335 808 C 958.861 794.761, 959.687 772.680, 962.392 753 C 972.163 681.893, 973.283 669.662, 973.335 633.500 C 973.366 612.264, 972.953 602.359, 971.626 592.500 C 967.970 565.339, 961.845 540.980, 956.821 533.620 C 952.148 526.774, 939.219 515, 936.374 515 C 935.952 515, 937.017 516.462, 938.739 518.250 M 305.623 531.750 C 295.541 562.495, 289.560 598.430, 288.038 637.410 C 286.617 673.784, 288.834 703.547, 296.239 747.500 C 299.032 764.075, 299.428 768.687, 299.341 783.630 C 299.286 793.051, 298.695 804.602, 298.029 809.298 C 296.825 817.777, 296.835 817.863, 299.434 821.668 C 300.873 823.776, 303.115 828.875, 304.416 833 C 308.610 846.296, 309.390 856.425, 308.526 886.345 C 308.094 901.280, 307.462 934.549, 307.121 960.275 L 306.500 1007.049 310.500 1006.451 C 312.700 1006.122, 315.727 1006.321, 317.226 1006.893 C 319.952 1007.932, 319.952 1007.932, 319.226 1003.216 C 318.827 1000.622, 318.538 980.500, 318.584 958.500 C 318.726 891.102, 322.717 859.809, 333.524 841.369 C 334.862 839.085, 339.490 832.509, 343.808 826.755 C 355.910 810.630, 358.192 803.018, 362.480 764.477 C 365.473 737.567, 367.312 725.771, 373.427 694.253 C 379.838 661.209, 382.371 642.594, 382.440 628 L 382.500 615.500 375 603.276 L 367.500 591.052 366.846 600.776 C 366.486 606.124, 365.262 616.350, 364.127 623.500 C 358.319 660.063, 358.145 663, 360.920 677.500 C 364.407 695.726, 365.930 721.447, 364.057 730.500 C 363.436 733.503, 363.201 731.384, 363.114 722 C 362.808 688.951, 359.293 670.860, 344.853 628 C 328.664 579.948, 323.017 558.606, 323.004 545.424 C 323.001 542.375, 322.371 540.758, 320.504 539.004 C 319.131 537.714, 317.794 536.872, 317.534 537.133 C 317.273 537.394, 316.260 540.508, 315.282 544.054 C 313.913 549.022, 313.505 554.283, 313.503 567 C 313.499 590.482, 316.578 603.736, 331.071 642.623 C 349.919 693.194, 355.230 718.034, 355.313 756 C 355.356 775.703, 355.132 778.574, 352.633 790.356 C 350.058 802.498, 345.779 815.401, 343.952 816.529 C 343.497 816.811, 344.485 813.319, 346.147 808.770 C 347.809 804.222, 349.349 798.700, 349.569 796.500 C 349.789 794.300, 350.752 789.350, 351.708 785.500 C 353.114 779.836, 353.443 774.014, 353.429 755 C 353.413 733.813, 353.136 729.926, 350.619 715.508 C 349.084 706.712, 347.430 698.837, 346.944 698.008 C 346.384 697.052, 346.040 699.795, 346.005 705.500 C 345.950 714.453, 344.019 725.688, 338.531 749 C 334.815 764.782, 335.232 775.931, 339.971 787.500 C 343.586 796.324, 344.486 797.345, 347.312 795.833 C 348.795 795.039, 349.124 795.112, 348.759 796.153 C 348.482 796.944, 346.990 797.439, 345.143 797.353 C 342.167 797.213, 342 797.398, 341.999 800.853 C 341.999 802.859, 340.711 807.200, 339.138 810.500 C 336.231 816.600, 328.702 825.989, 327.588 824.905 C 327.251 824.577, 328.720 822.327, 330.852 819.905 C 335.863 814.211, 338.646 808.943, 340.119 802.358 C 341.241 797.346, 341.110 796.479, 337.652 786.056 C 335.643 780.002, 334 773.954, 334 772.618 C 334 770.311, 333.825 770.241, 330.564 771.242 C 327.271 772.252, 319.539 771.465, 313.250 769.478 C 311.333 768.872, 311 769.131, 311 771.234 C 311 774.217, 309.206 779.666, 307.199 782.781 C 304.800 786.505, 304.810 784.671, 307.218 779.405 C 309.073 775.350, 309.457 772.768, 309.439 764.500 C 309.420 756.069, 308.817 752.303, 305.599 740.500 C 295.545 703.628, 293.535 690.510, 293.572 662 C 293.603 637.792, 295.201 625.869, 301.555 602.428 C 309.086 574.648, 310.067 569.989, 311.537 555 C 313.363 536.385, 313.218 531.526, 310.709 527.250 C 309.661 525.462, 308.659 524, 308.483 524 C 308.308 524, 307.021 527.487, 305.623 531.750 M 476.250 527.947 C 473.639 532.530, 473.408 538.005, 475.067 556 C 476.107 567.276, 478.201 577.003, 484.108 598 C 496.389 641.650, 496.342 683.125, 483.960 727.500 C 476.982 752.509, 476 757.195, 476.024 765.378 C 476.042 771.633, 476.607 774.879, 478.481 779.500 C 480.603 784.730, 480.665 785.198, 478.967 783.151 C 477.156 780.968, 474 772.226, 474 769.395 C 474 768.490, 473.120 768.600, 470.750 769.803 C 467.674 771.364, 456.457 772.106, 453.133 770.968 C 452.326 770.692, 451.637 771.320, 451.453 772.500 C 451.280 773.600, 450.895 776.081, 450.596 778.014 C 450.297 779.946, 448.866 784.445, 447.417 788.011 C 445.219 793.421, 444.890 795.405, 445.428 799.989 C 446.250 806.975, 449.727 814.586, 454.525 819.896 C 456.591 822.182, 458.048 824.286, 457.763 824.570 C 456.882 825.451, 449.212 816.069, 446.886 811.264 C 445.671 808.756, 444.469 804.526, 444.213 801.864 C 443.789 797.448, 443.553 797.074, 441.518 797.585 C 440.129 797.934, 438.640 797.497, 437.571 796.429 C 435.950 794.807, 435.894 794.927, 436.548 798.606 C 436.929 800.748, 438.488 805.763, 440.013 809.750 C 443.230 818.160, 442.956 819.424, 439.580 811.750 C 431.454 793.278, 428.510 758.802, 432.472 728.500 C 436.141 700.438, 440.908 682.428, 454.087 646.830 C 469.569 605.013, 473.406 589.049, 473.396 566.500 C 473.391 553.939, 471.848 540.990, 470 538 C 468.407 535.423, 464 540.596, 464 545.043 C 464 556.839, 458.683 577.266, 444.885 618.489 C 438.811 636.633, 432.535 656.545, 430.938 662.739 C 427.251 677.040, 424.224 698.294, 423.140 717.500 L 422.293 732.500 422.155 719 C 421.999 703.832, 423.025 692.835, 426.167 676 C 428.564 663.160, 428.463 661.389, 423.393 627 C 422.056 617.925, 420.676 606.099, 420.328 600.719 L 419.694 590.939 412.097 603.701 L 404.500 616.462 404.658 629.981 C 404.831 644.740, 407.108 662.106, 412.581 690.415 C 418.511 721.089, 420.870 736.093, 422.994 756.643 C 426.084 786.531, 427.862 797.449, 431.162 806.799 C 434.439 816.084, 435.991 818.790, 444.463 830 C 453.482 841.935, 458.891 855.114, 461.976 872.677 C 463.614 882, 465.943 919.391, 466.637 947.500 C 467.207 970.617, 466.075 999.580, 464.354 1005.864 C 463.766 1008.012, 463.926 1008.149, 466.104 1007.367 C 467.422 1006.894, 470.525 1006.606, 473 1006.727 L 477.500 1006.948 477.076 955.224 C 476.256 855.155, 476.300 851.360, 478.364 842.500 C 480.283 834.265, 484.932 822.837, 487.531 819.965 C 488.717 818.655, 488.809 817.383, 488.003 813.420 C 487.453 810.714, 486.704 801.090, 486.340 792.034 C 485.961 782.608, 485.349 776.408, 484.909 777.534 C 483.565 780.973, 483.858 776.742, 485.445 769.812 C 487.405 761.256, 493.582 722.511, 495.539 706.500 C 499.551 673.682, 499.083 624.075, 494.458 592.044 C 491.116 568.898, 483.880 536.887, 479.758 527.011 C 478.500 523.998, 478.500 523.998, 476.250 527.947 M 314.032 536.250 C 314.061 539.250, 314.171 539.358, 315.463 537.653 C 316.233 536.637, 316.620 535.174, 316.324 534.403 C 315.347 531.857, 313.999 532.943, 314.032 536.250 M 471.139 534.332 C 470.319 535.320, 470.408 536.159, 471.485 537.582 C 472.850 539.386, 472.938 539.307, 472.968 536.250 C 473.003 532.645, 472.755 532.385, 471.139 534.332 M 324.655 546.750 C 327.479 566.754, 328.355 570.552, 335.788 595 L 340.500 610.500 341.126 603.500 C 342.181 591.702, 342.060 570.025, 340.902 563.082 C 339.842 556.731, 339.556 556.263, 332.780 549.750 C 328.917 546.038, 325.390 543, 324.941 543 C 324.493 543, 324.364 544.688, 324.655 546.750 M 454.364 549.738 C 447.445 556.294, 447.186 556.714, 445.870 563.500 C 444.445 570.850, 444.405 599.423, 445.811 605.925 C 446.496 609.092, 446.870 608.337, 450.772 595.925 C 457.803 573.563, 462.594 551.755, 461.828 545.606 C 461.512 543.069, 461.249 543.214, 454.364 549.738 M 342.670 563 C 343.866 567.473, 344.017 572.913, 343.479 592.140 L 342.818 615.781 349.541 636.640 C 357.897 662.567, 357.359 661.264, 357.736 656.500 C 357.910 654.300, 359.597 641.925, 361.485 629 C 363.373 616.075, 365.217 601.900, 365.582 597.499 C 366.246 589.499, 366.246 589.499, 360.170 580.499 C 356.828 575.550, 351.192 568.350, 347.646 564.500 L 341.199 557.500 342.670 563 M 439.315 564.577 C 429.906 575.219, 422.351 586.403, 421.662 590.709 C 420.957 595.119, 421.819 603.647, 425.986 633.500 C 427.598 645.050, 429.067 655.850, 429.252 657.500 C 429.568 660.330, 429.659 660.245, 430.849 656 C 431.544 653.525, 434.662 644.075, 437.778 635 L 443.445 618.500 443.472 591 C 443.492 571.513, 443.857 562.699, 444.725 560.750 C 445.399 559.237, 445.766 558, 445.540 558 C 445.314 558, 442.513 560.960, 439.315 564.577 M 475.079 577.343 C 474.867 587.675, 467.950 614.222, 459.830 635.874 C 457.019 643.368, 451.868 657.825, 448.382 668 C 442.044 686.500, 442.044 686.500, 442.042 699.500 C 442.039 714.546, 442.741 720.115, 447.436 742.279 C 449.325 751.201, 451.238 760.975, 451.685 764 C 452.500 769.500, 452.500 769.500, 459.046 769.791 C 462.646 769.951, 467.371 769.500, 469.546 768.788 C 473.500 767.494, 473.500 767.494, 474.163 760.792 C 474.528 757.106, 477.100 745.857, 479.880 735.795 C 488.797 703.516, 491.331 687.197, 491.341 662 C 491.351 637.919, 488.101 617.571, 479.469 587.675 C 475.090 572.509, 475.174 572.708, 475.079 577.343 M 310.102 577.159 C 310.046 578.071, 308.386 584.371, 306.414 591.159 C 297.553 621.649, 294.451 643.689, 295.320 670 C 295.991 690.337, 298.246 705.184, 304.079 727.662 C 310.130 750.980, 310.096 750.832, 311.363 759.500 C 312.515 767.377, 312.587 767.518, 316.016 768.694 C 320.648 770.281, 330.223 770.314, 332.190 768.750 C 333.134 767.999, 334.023 765.103, 334.415 761.500 C 334.774 758.200, 336.412 749.933, 338.055 743.129 C 342.990 722.688, 344.352 713.330, 344.405 699.500 C 344.462 684.417, 343.968 682.498, 331.011 647.500 C 320.282 618.517, 316.346 605.912, 313.922 592.769 C 311.598 580.165, 310.255 574.678, 310.102 577.159 M 578.108 580.058 C 576.793 581.154, 575.911 582.244, 576.147 582.481 C 576.384 582.718, 577.911 581.823, 579.539 580.492 C 581.168 579.161, 582.050 578.071, 581.500 578.069 C 580.950 578.068, 579.424 578.963, 578.108 580.058 M 681 584.091 C 679.075 585.648, 675.025 588.864, 672 591.237 C 668.457 594.016, 664.365 598.784, 660.500 604.638 C 657.200 609.636, 652.517 616.282, 650.094 619.407 C 645.322 625.561, 645.476 627.668, 650.605 626.389 C 654.234 625.485, 665.406 613.925, 666.782 609.651 C 667.730 606.705, 667.802 606.665, 667.898 609.037 C 667.954 610.433, 666.158 617.858, 663.907 625.537 C 652.795 663.447, 652.116 666.336, 654.044 667.527 C 656.084 668.788, 657.794 665.796, 664.064 649.995 C 669.742 635.686, 672.017 631.455, 671.992 635.250 C 671.987 635.938, 669.737 643.861, 666.992 652.858 C 661.795 669.890, 660.867 676, 663.477 676 C 665.734 676, 667.399 672.772, 673.387 656.786 C 682.684 631.967, 684.596 630.517, 677.841 653.406 C 672.623 671.088, 672.103 674.320, 674.551 673.847 C 676.853 673.401, 679.916 667.324, 684.958 653.197 C 688.854 642.280, 691.900 635.430, 691.938 637.500 C 691.975 639.480, 688.110 655.595, 686.572 659.876 C 684.645 665.238, 684.591 667, 686.352 667 C 687.955 667, 692.987 656.343, 696.032 646.500 C 697.224 642.650, 699.772 634.550, 701.695 628.500 C 706.189 614.364, 707.961 605.949, 707.983 598.643 C 707.997 593.724, 707.748 592.883, 706.428 593.389 C 702.902 594.742, 695.843 591.749, 690.152 586.487 L 684.500 581.261 681 584.091 M 1046.051 584.203 C 1042.118 589.171, 1035.264 593, 1030.304 593 C 1026 593, 1026 593, 1026 598.316 C 1026 606.093, 1027.614 613.990, 1031.966 627.500 C 1034.092 634.100, 1036.799 642.650, 1037.982 646.500 C 1040.519 654.756, 1045.958 667, 1047.089 667 C 1048.903 667, 1048.889 664.851, 1047.036 658.849 C 1044.547 650.786, 1041.812 637.855, 1042.459 637.208 C 1042.731 636.936, 1043.170 637.341, 1043.435 638.107 C 1052.660 664.774, 1057.533 675.025, 1060.202 673.375 C 1061.652 672.479, 1061.043 669.231, 1057.089 656.779 C 1049.032 631.406, 1050.808 630.220, 1059.911 654.895 C 1066.364 672.387, 1068.181 676, 1070.523 676 C 1073.140 676, 1072.203 669.753, 1067 652.500 C 1059.246 626.789, 1060.454 625.804, 1070.059 650.004 C 1076.555 666.370, 1078.201 669.199, 1080.111 667.289 C 1081.515 665.885, 1079.276 655.111, 1074.439 640 C 1068.165 620.398, 1063.967 602.709, 1067.331 610.051 C 1071.086 618.244, 1084.361 629.039, 1087.196 626.204 C 1088.047 625.353, 1088.138 624.507, 1087.478 623.596 C 1086.940 622.854, 1083.970 618.898, 1080.877 614.805 C 1077.785 610.712, 1074.019 605.369, 1072.509 602.932 C 1068.727 596.827, 1064.481 592.471, 1057.960 588.005 C 1054.913 585.918, 1051.820 583.488, 1051.087 582.605 C 1049.311 580.465, 1048.911 580.592, 1046.051 584.203 M 216 585.487 C 216 586.206, 223.233 589.101, 223.746 588.587 C 223.988 588.345, 222.816 587.439, 221.143 586.574 C 218.113 585.007, 216 584.560, 216 585.487 M 565.662 586.618 C 564.100 587.464, 563.019 588.352, 563.258 588.591 C 563.769 589.102, 571 586.202, 571 585.487 C 571 584.556, 568.482 585.090, 565.662 586.618 M 206.194 599.850 C 202.623 605.362, 197.454 609.151, 190.370 611.450 L 185.500 613.031 190 612.464 C 198.004 611.455, 206.451 604.577, 209.300 596.750 C 210.338 593.898, 209.525 594.710, 206.194 599.850 M 577 596.082 C 577 596.892, 577.744 598.668, 578.653 600.027 C 583.498 607.272, 589.390 611.354, 596.547 612.424 C 600.226 612.974, 600.127 612.877, 595.113 611.022 C 588.111 608.431, 583.479 604.824, 579.895 599.173 C 578.303 596.663, 577 595.271, 577 596.082 M 776.620 633.621 C 776.261 646.204, 775.753 660.775, 775.490 666 C 774.984 676.097, 775.812 675.446, 777.947 664.069 C 780.446 650.747, 787.311 638.822, 795.266 633.984 C 798.110 632.255, 798.110 632.255, 793.771 629.712 C 788.525 626.637, 780.381 618.136, 778.581 613.855 C 777.429 611.114, 777.194 613.479, 776.620 633.621 M 954.599 614.766 C 952.510 619.415, 944.237 627.792, 939.125 630.435 L 935.866 632.121 939.719 634.911 C 949.130 641.728, 954.442 652.611, 957.334 671 C 957.943 674.867, 957.815 649.589, 957.122 629.019 C 956.500 610.538, 956.500 610.538, 954.599 614.766 M 877.457 624.651 C 877.703 626.218, 878.158 631.503, 878.469 636.396 C 879.228 648.343, 883.282 674.809, 887.445 695 L 890.848 711.500 890.174 700 C 888.550 672.294, 890.216 652.910, 895.327 640.022 L 897.500 634.545 890.925 631.395 C 887.308 629.663, 882.698 626.796, 880.680 625.024 C 877.010 621.802, 877.010 621.802, 877.457 624.651 M 853.034 625.463 C 851.139 627.481, 847.682 629.486, 837.172 634.662 C 836.991 634.751, 837.948 637.901, 839.299 641.662 C 840.650 645.423, 842.321 651.875, 843.014 656 C 844.445 664.523, 844.823 685.458, 843.827 701 C 843.154 711.500, 843.154 711.500, 847.534 690.029 C 853.210 662.204, 858.268 623, 856.181 623 C 855.723 623, 854.307 624.109, 853.034 625.463 M 928.441 635.421 C 926.619 636.755, 926.503 638.186, 926.550 658.671 C 926.606 682.808, 928.734 704.757, 933.903 734.518 C 938.725 762.275, 942.971 779.824, 947.811 792 C 950.683 799.224, 958.525 812.931, 957.537 809 C 953.512 792.985, 953.178 777.867, 956.009 740 C 957.099 725.425, 957.993 708.420, 957.996 702.211 C 958.004 681.660, 954.786 661.356, 949.697 649.850 C 944.314 637.677, 934.478 631.001, 928.441 635.421 M 828 636.195 C 824.975 636.717, 819.913 636.894, 816.750 636.588 C 813.587 636.281, 811 636.259, 811 636.538 C 811 636.816, 812.747 640.522, 814.881 644.772 C 822.470 659.883, 827.334 679.826, 828.986 702.605 C 830.310 720.859, 828.358 795.770, 825.929 819.908 C 825.408 825.082, 825.134 829.467, 825.320 829.653 C 825.923 830.257, 830.984 814.686, 832.520 807.500 C 833.343 803.650, 834.467 790.375, 835.018 778 C 835.569 765.625, 836.908 748.525, 837.994 740 C 842.683 703.181, 843.947 677.912, 841.967 660.623 C 840.916 651.457, 836.264 635.759, 834.500 635.432 C 833.950 635.330, 831.025 635.673, 828 636.195 M 897.107 640.256 C 889.882 658.122, 889.430 685.921, 895.555 735.693 C 896.922 746.799, 898.457 765.705, 898.965 777.707 C 899.904 799.854, 901.744 812.171, 905.859 823.855 C 907.619 828.852, 909.841 832.531, 908.665 828.500 C 906.282 820.334, 903.359 720.249, 904.977 702.264 C 907.130 678.344, 912.769 656.545, 920.451 642.443 L 923.750 636.385 915.625 636.443 C 911.156 636.474, 905.639 636.165, 903.364 635.756 C 899.227 635.013, 899.227 635.013, 897.107 640.256 M 809.476 657.635 C 809.460 671.503, 808.825 683.862, 807.582 694.491 C 804.476 721.043, 805.776 740.153, 813.941 788 C 815.584 797.625, 818.123 812.700, 819.584 821.500 C 821.044 830.300, 822.572 837.864, 822.978 838.308 C 823.383 838.752, 823.792 835.377, 823.885 830.808 C 823.977 826.239, 824.471 816.875, 824.980 810 C 825.490 803.125, 826.452 778.138, 827.118 754.474 C 828.382 709.532, 827.947 697.644, 824.338 678.500 C 822.376 668.094, 817.916 654.488, 813.236 644.635 L 809.500 636.770 809.476 657.635 M 920.684 645.750 C 915.796 656.184, 913.555 662.961, 910.587 676.281 C 906.219 695.882, 905.616 709.320, 906.923 757.895 C 907.569 781.878, 908.521 806.450, 909.040 812.500 C 909.558 818.550, 910.015 827.325, 910.055 832 C 910.106 838.012, 910.387 839.853, 911.017 838.290 C 911.506 837.074, 914.614 819.749, 917.923 799.790 C 929.425 730.412, 929.747 725.996, 925.990 689.235 C 924.478 674.437, 923.921 663.412, 924.159 652.984 C 924.346 644.742, 924.458 637.999, 924.408 637.999 C 924.357 638, 922.681 641.487, 920.684 645.750 M 439.126 697.500 C 439.040 698.050, 438.060 703.450, 436.949 709.500 C 429.530 749.891, 430.978 793.091, 439.864 796.501 C 441.858 797.266, 442.399 796.524, 445.323 789 C 450.923 774.593, 451.358 766.450, 447.437 749.500 C 442.876 729.784, 441.006 719.080, 440.137 707.693 C 439.667 701.537, 439.212 696.950, 439.126 697.500 M 929.682 733 C 928.579 746.411, 922.237 788.097, 918.375 807.325 C 917.808 810.151, 917.808 810.151, 920.841 808.582 C 924.448 806.717, 926.405 807.262, 930.750 811.341 L 934 814.392 934 810.164 C 934 802.065, 939.594 794.307, 944.728 795.288 C 947.459 795.810, 947.433 796.172, 945.096 790.243 C 941.313 780.646, 932.148 739.861, 930.772 726.500 C 930.602 724.850, 930.112 727.775, 929.682 733 M 801.681 736 C 798.562 755.952, 792.159 781.796, 787.498 793.250 C 786.938 794.626, 787.295 795, 789.171 795 C 794.599 795, 799.934 802.579, 799.978 810.354 L 800 814.207 803.535 811.104 C 807.171 807.911, 810.672 807.219, 814.046 809.024 C 815.757 809.940, 815.906 809.755, 815.454 807.274 C 811.651 786.426, 806.765 754.362, 805.925 744.730 C 804.063 723.394, 803.752 722.755, 801.681 736 M 307.449 791.468 C 304.476 798.583, 306.498 813.007, 311.550 820.716 C 314.280 824.883, 314.167 822.606, 311.336 816.422 C 308.278 809.743, 307.075 798.010, 308.805 791.744 C 310.103 787.044, 309.360 786.893, 307.449 791.468 M 477.336 794.489 C 478.567 801.281, 477.208 809.681, 473.607 817.546 C 472.234 820.546, 471.474 823, 471.919 823 C 473.241 823, 477.960 811.585, 479.029 805.801 C 480.047 800.296, 479.101 791.701, 477.277 789.877 C 476.695 789.295, 476.718 791.081, 477.336 794.489 M 785.789 798.750 C 784.952 799.712, 781.504 804.876, 778.127 810.225 C 772.390 819.310, 771.728 820.998, 768.053 835.906 C 762.400 858.845, 760.727 871.845, 761.205 889.129 C 761.626 904.375, 763.265 911.351, 767.985 917.979 C 772.546 924.384, 781.259 919.865, 787.223 908 C 789.354 903.761, 789.523 901.877, 790.148 875.500 C 790.842 846.171, 792.087 835.401, 796.217 823 C 798.616 815.797, 798.955 807.697, 797.016 803.948 C 793.633 797.406, 788.873 795.202, 785.789 798.750 M 939.519 799.574 C 938.207 800.989, 936.696 804.252, 936.160 806.824 C 935.244 811.219, 935.842 819.318, 937.252 821.598 C 937.600 822.162, 938.879 827.321, 940.094 833.062 C 941.964 841.899, 942.398 848.024, 942.930 873 C 943.526 901.031, 943.674 902.760, 945.892 907.727 C 947.176 910.602, 950.220 914.791, 952.656 917.037 C 960.555 924.318, 965.569 921.457, 970.095 907.087 C 971.803 901.662, 972.173 897.854, 972.190 885.500 C 972.214 868.846, 970.860 858.798, 965.466 835.605 C 962.252 821.790, 961.554 819.978, 955.831 810.605 C 952.437 805.047, 948.992 799.712, 948.175 798.750 C 946.042 796.236, 942.281 796.594, 939.519 799.574 M 804.036 812.750 C 795.641 821.192, 792.918 835.520, 792.268 874.666 C 791.732 906.926, 792.102 909.700, 798.043 917.901 C 801.478 922.642, 808.155 926.429, 811.571 925.572 C 822.960 922.713, 827.842 882.108, 821.559 842.500 C 817.694 818.137, 815.955 811.582, 812.929 809.962 C 809.803 808.289, 807.869 808.895, 804.036 812.750 M 920.090 810.750 C 918.373 812.160, 917.296 815.900, 914.547 830 C 909.939 853.638, 908.588 868.235, 909.319 886.500 C 910.203 908.591, 913.832 921.364, 920.247 924.965 C 922.664 926.322, 923.280 926.263, 927.350 924.285 C 932.560 921.754, 936.303 917.215, 939.286 909.809 C 941.191 905.080, 941.443 902.369, 941.589 885 C 941.934 843.913, 938.395 821.705, 930.115 813 C 925.964 808.637, 923.372 808.055, 920.090 810.750 M 294.163 830.723 C 289.466 852.505, 287.980 862.844, 287.367 878 C 286.622 896.406, 287.476 905.479, 293.482 943 C 300.653 987.797, 302.729 1012.361, 300.074 1020.993 C 299.483 1022.915, 299.002 1027.415, 299.005 1030.993 C 299.010 1037.500, 299.010 1037.500, 301.469 1034.500 C 304.644 1030.626, 304.642 1031.599, 301.463 1037.287 C 300.068 1039.783, 297.378 1046.425, 295.485 1052.046 C 292.947 1059.581, 290.310 1064.843, 285.444 1072.083 C 281.815 1077.482, 277.980 1084.178, 276.923 1086.961 C 274.850 1092.416, 274.383 1098, 276 1098 C 276.550 1098, 277.002 1097.213, 277.004 1096.250 C 277.008 1094.320, 280.849 1087.516, 281.543 1088.210 C 281.782 1088.449, 281.015 1090.924, 279.838 1093.709 C 278.662 1096.494, 277.978 1099.499, 278.318 1100.387 C 279.396 1103.196, 281.641 1102.136, 282.845 1098.250 C 284.176 1093.952, 287.538 1089.204, 288.541 1090.207 C 288.913 1090.580, 288.204 1092.310, 286.964 1094.051 C 284.148 1098.005, 283.721 1104.274, 286.232 1104.786 C 287.496 1105.044, 288.613 1103.704, 290.370 1099.820 C 292.865 1094.303, 295.920 1089.757, 295.959 1091.500 C 295.972 1092.050, 294.875 1094.750, 293.522 1097.500 C 290.652 1103.334, 290.391 1105.829, 292.564 1106.663 C 294.859 1107.544, 299 1105.330, 299 1103.222 C 299 1101.253, 303.983 1093, 305.171 1093 C 306.270 1093, 304.045 1098.718, 302.422 1100.064 C 300.375 1101.764, 300.671 1105.753, 302.934 1106.965 C 307.592 1109.458, 314.376 1106.739, 316.564 1101.502 C 317.337 1099.651, 318.430 1097.852, 318.992 1097.505 C 322.193 1095.526, 323.225 1090.442, 323.641 1074.588 C 324.072 1058.181, 326.686 1037.013, 326.801 1049 C 326.830 1052.025, 326.493 1056.975, 326.053 1060 C 325.612 1063.025, 325.368 1065.636, 325.512 1065.803 C 325.655 1065.969, 326.786 1064.465, 328.025 1062.460 C 330.034 1059.209, 330.209 1057.997, 329.639 1051.260 C 329.288 1047.105, 328.481 1043.080, 327.847 1042.316 C 326.972 1041.262, 327.017 1039.211, 328.030 1033.843 C 329.096 1028.192, 329.127 1025.366, 328.183 1019.862 C 326.400 1009.464, 326.765 993.126, 329.129 977.500 C 331.792 959.902, 331.784 959.386, 328.712 948.466 C 327.313 943.497, 325.132 933.284, 323.863 925.771 C 322.595 918.257, 321.442 912.225, 321.301 912.366 C 321.160 912.507, 320.591 926.544, 320.035 943.561 C 318.755 982.800, 319.867 1006.165, 323.183 1009.695 C 325.666 1012.338, 324.585 1012.839, 321.813 1010.331 C 320.745 1009.364, 317.629 1008.468, 314.406 1008.201 C 309.835 1007.822, 308.330 1008.119, 305.962 1009.870 C 302.301 1012.577, 301.140 1012.607, 303.561 1009.933 C 305.330 1007.978, 305.442 1005.154, 305.625 957.683 C 305.731 930.082, 306.242 898.950, 306.760 888.500 C 308.190 859.662, 306.687 843.903, 301.082 828.940 C 297.193 818.560, 296.762 818.671, 294.163 830.723 M 486.037 824.928 C 478.790 839.133, 476.396 860.336, 478.032 895.815 C 478.633 908.842, 478.993 939.109, 478.833 963.075 C 478.552 1005.105, 478.611 1006.755, 480.521 1009.575 C 482.500 1012.500, 482.500 1012.500, 483.134 1002.500 C 483.885 990.650, 486.219 973.451, 489.513 955.500 C 497.989 909.301, 499.852 891.056, 498.111 871.293 C 496.947 858.079, 490.062 821.007, 488.770 821.003 C 488.369 821.001, 487.139 822.767, 486.037 824.928 M 342.311 831.272 C 330.087 847.850, 325.742 860.960, 322.955 889.679 C 322.001 899.512, 322.125 902.642, 323.985 915.679 C 325.900 929.101, 331.751 956.583, 332.528 955.805 C 332.901 955.433, 344.596 908.894, 345.422 904.500 C 347.677 892.494, 348.056 881.243, 346.937 859.500 C 345.904 839.420, 345.950 835.675, 347.299 830.006 C 348.149 826.434, 348.740 823.407, 348.612 823.278 C 348.483 823.150, 345.648 826.747, 342.311 831.272 M 437.471 824.498 C 440.014 832.234, 440.241 837.295, 439.051 859.640 C 437.385 890.899, 438.221 898.460, 447.373 934.910 L 452.749 956.320 455.342 945.410 C 458.509 932.082, 460.770 919.277, 461.949 908 C 463.584 892.354, 459.899 864.429, 454.318 850.175 C 451.029 841.772, 435.238 817.705, 437.471 824.498 M 789.729 906.020 C 787.905 913.075, 778.202 923, 773.129 923 C 771.444 923, 770.997 923.447, 771.380 924.750 C 771.663 925.712, 773.071 934.375, 774.509 944 C 775.947 953.625, 779.816 977.687, 783.107 997.470 C 786.398 1017.254, 788.957 1034.579, 788.794 1035.970 C 788.486 1038.598, 787.311 1032.508, 781.470 998 C 777.301 973.374, 773.466 949.248, 771.474 935.114 C 770.669 929.401, 769.263 923.326, 768.350 921.614 C 767.436 919.901, 765.610 916.475, 764.290 914 C 761.892 909.500, 761.892 909.500, 762.427 913 C 762.936 916.326, 765.484 933.750, 772.006 978.500 C 776.088 1006.504, 776.661 1017.483, 774.575 1027.667 C 773.036 1035.181, 773.029 1036.323, 774.488 1041.953 C 775.360 1045.319, 775.784 1048.541, 775.430 1049.113 C 775.076 1049.686, 774.142 1052.917, 773.354 1056.293 C 771.947 1062.327, 765.756 1076.082, 760.407 1085.063 C 755.114 1093.948, 758.593 1097.268, 774.955 1098.947 C 794.575 1100.961, 800.478 1100.253, 803.584 1095.513 C 805.097 1093.204, 805.138 1092.155, 803.986 1085.419 C 802.909 1079.120, 802.441 1078.022, 801.100 1078.650 C 800.220 1079.062, 796.476 1079.571, 792.780 1079.780 C 787.213 1080.096, 785.375 1079.777, 782.066 1077.917 C 777.753 1075.493, 775 1070.962, 775 1066.287 C 775 1064.686, 775.975 1059.804, 777.167 1055.438 C 779.523 1046.813, 779.658 1045.775, 779.938 1034.250 C 780.094 1027.865, 780.309 1026.940, 781.158 1029 C 782.538 1032.345, 781.513 1044.148, 779.012 1053.694 C 776.120 1064.736, 776.303 1071.030, 779.612 1074.339 C 782.701 1077.429, 787.024 1078.412, 794.716 1077.774 C 799.264 1077.396, 800.784 1076.790, 802.669 1074.598 C 806.012 1070.712, 805.797 1063.427, 802 1052 C 800.350 1047.034, 799.033 1041.514, 799.074 1039.735 C 799.126 1037.437, 799.665 1038.607, 800.935 1043.778 C 803.128 1052.705, 804 1053.795, 804 1047.609 C 804 1045.011, 804.505 1040.882, 805.121 1038.433 C 806.015 1034.884, 805.901 1031.902, 804.562 1023.735 C 801.857 1007.245, 804.406 985.566, 814.054 943 C 816.235 933.375, 818.320 924.375, 818.687 923 C 819.279 920.783, 818.937 920.942, 815.657 924.411 C 811.505 928.804, 809.534 934.404, 805.502 953.264 C 802.090 969.224, 799.303 991.751, 797.989 1014 C 796.561 1038.178, 795.943 1039.898, 796.551 1018 C 797.332 989.928, 801.268 961.181, 807.482 938.178 C 808.867 933.051, 810 928.703, 810 928.517 C 810 928.331, 807.974 927.198, 805.499 925.999 C 798.819 922.766, 792.734 914.572, 791.018 906.500 C 790.381 903.500, 790.381 903.500, 789.729 906.020 M 941.612 908.253 C 940.216 915.695, 930.038 927, 924.733 927 C 922.486 927, 922.440 926.602, 926.345 941 C 929.814 953.790, 932.735 971.272, 934.529 989.985 C 936.300 1008.451, 937.548 1034.748, 936.613 1033.891 C 936.247 1033.556, 935.509 1025.681, 934.973 1016.391 C 933.066 983.359, 929.163 956.325, 923.465 936.669 C 921.465 929.771, 920.124 927.057, 917.338 924.271 C 914.950 921.883, 913.966 921.332, 914.361 922.602 C 916.048 928.038, 923.302 962.760, 925.545 976.139 C 928.917 996.253, 929.791 1017.081, 927.643 1026.168 C 926.240 1032.102, 926.228 1033.456, 927.533 1038.467 C 928.340 1041.564, 929 1045.951, 929 1048.215 C 929 1050.480, 929.193 1052.140, 929.430 1051.903 C 929.666 1051.667, 930.764 1048.104, 931.869 1043.987 C 933.219 1038.959, 933.899 1037.499, 933.939 1039.541 C 933.973 1041.213, 932.608 1046.838, 930.906 1052.041 C 926.106 1066.716, 926.951 1074.510, 933.617 1077.045 C 938.079 1078.741, 947.186 1078.184, 950.775 1075.996 C 956.449 1072.536, 957.291 1067.119, 954 1055.243 C 951.209 1045.170, 951.648 1042.941, 954.639 1052 C 957.931 1061.970, 958.208 1069.890, 955.395 1073.671 C 951.976 1078.268, 947.765 1080.165, 941.051 1080.133 C 937.758 1080.118, 934.111 1079.595, 932.946 1078.971 C 931.782 1078.348, 930.619 1078.048, 930.363 1078.304 C 930.106 1078.560, 929.402 1081.756, 928.797 1085.405 C 926.688 1098.136, 930.442 1100.624, 950.205 1099.593 C 962.668 1098.944, 970.659 1097.358, 973.546 1094.961 C 976.036 1092.896, 975.135 1088.779, 970.510 1081.091 C 965.223 1072.300, 960.441 1061.154, 958.926 1054.091 C 958.326 1051.291, 957.442 1049, 956.961 1049 C 956.481 1049, 956.784 1047.088, 957.633 1044.750 C 958.854 1041.391, 959.002 1038.824, 958.341 1032.500 C 956.393 1013.880, 957.429 999.748, 963.875 957 C 967.234 934.725, 970.211 915.150, 970.492 913.500 C 970.860 911.330, 969.930 912.437, 967.131 917.500 C 964.124 922.939, 962.998 926.395, 962.081 933 C 961.431 937.675, 958.191 957.475, 954.880 977 C 951.569 996.525, 947.980 1018.125, 946.904 1025 C 945.828 1031.875, 944.770 1037.950, 944.553 1038.500 C 943.373 1041.486, 944.283 1029.891, 946.044 1019.500 C 951.694 986.156, 957.137 953.086, 958.964 941 C 960.087 933.575, 961.238 926.487, 961.522 925.250 C 961.946 923.403, 961.613 923, 959.660 923 C 956.419 923, 948.535 915.866, 945.068 909.795 C 942.249 904.859, 942.249 904.859, 941.612 908.253 M 462.623 917 C 461.026 927.574, 456.965 946.552, 454.966 952.785 C 453.050 958.760, 453.025 959.502, 454.454 967.785 C 458.138 989.143, 458.732 1009.689, 455.972 1020.337 C 454.922 1024.390, 454.982 1026.659, 456.342 1034.337 C 459.136 1050.108, 460.256 1061.991, 460.380 1077.177 C 460.492 1090.863, 460.654 1092.045, 462.778 1094.677 C 464.030 1096.230, 465.681 1098.859, 466.445 1100.520 C 469.487 1107.131, 476.468 1109.871, 480.973 1106.223 C 483.399 1104.258, 483.399 1104.258, 481.453 1101.379 C 478.356 1096.797, 476.776 1092.762, 478.265 1093.238 C 478.944 1093.455, 480.850 1096.419, 482.500 1099.826 C 484.476 1103.905, 486.249 1106.219, 487.693 1106.604 C 492.653 1107.926, 493.274 1104.448, 489.433 1096.867 C 488.021 1094.081, 487.072 1091.595, 487.324 1091.343 C 488.056 1090.611, 491.603 1096.148, 493.111 1100.376 C 494.682 1104.782, 496.500 1105.928, 498.594 1103.834 C 499.771 1102.658, 499.819 1101.766, 498.857 1098.947 C 498.209 1097.051, 496.846 1094.419, 495.826 1093.097 C 493.935 1090.647, 493.999 1089.263, 495.948 1090.468 C 497.382 1091.354, 501 1098.510, 501 1100.460 C 501 1101.333, 501.866 1102, 503 1102 C 504.518 1102, 505 1101.333, 505 1099.235 C 505 1097.715, 504.100 1094.791, 503 1092.739 C 500.478 1088.033, 500.474 1087.214, 502.987 1089.488 C 504.080 1090.477, 505.520 1092.797, 506.188 1094.643 C 507.393 1097.975, 509 1099.167, 509 1096.728 C 509 1091.741, 504.775 1081.482, 499.806 1074.403 C 492.974 1064.670, 491.038 1060.831, 487.499 1050 C 485.971 1045.325, 483.641 1039.250, 482.321 1036.500 C 479.920 1031.500, 479.920 1031.500, 482.455 1034.500 C 484.990 1037.500, 484.990 1037.500, 484.995 1031.582 C 484.998 1028.327, 484.499 1022.787, 483.887 1019.271 C 482.874 1013.458, 482.422 1012.646, 478.894 1010.311 C 475.679 1008.184, 474.179 1007.824, 470.135 1008.213 C 467.238 1008.491, 463.916 1009.636, 461.958 1011.030 C 458.661 1013.378, 458.661 1013.378, 460.808 1010.439 C 462.348 1008.331, 463.242 1004.957, 463.969 998.500 C 465.077 988.675, 465.175 936.231, 464.115 921 C 463.454 911.500, 463.454 911.500, 462.623 917 M 307.500 1023.403 C 305.850 1024.131, 303.600 1025.745, 302.500 1026.989 C 300.738 1028.982, 300.977 1028.928, 304.500 1026.535 C 307.961 1024.184, 309.270 1023.872, 314.213 1024.220 C 317.690 1024.465, 320.655 1025.283, 321.791 1026.311 C 323.899 1028.219, 325.468 1028.566, 324.436 1026.896 C 323.411 1025.238, 315.850 1022.042, 313 1022.061 C 311.625 1022.071, 309.150 1022.674, 307.500 1023.403 M 466.500 1022.733 C 463.932 1023.376, 459 1026.864, 459 1028.038 C 459 1028.534, 460.638 1027.828, 462.640 1026.470 C 467.337 1023.282, 474.076 1023.140, 478.973 1026.124 C 481.600 1027.726, 482.105 1027.831, 481.045 1026.555 C 477.894 1022.758, 472.286 1021.284, 466.500 1022.733 M 951.119 1028.443 C 949.707 1034.048, 949.761 1037.729, 951.306 1041.346 C 952.368 1043.831, 952.522 1042.914, 952.522 1034.096 C 952.522 1028.543, 952.458 1024, 952.380 1024 C 952.301 1024, 951.734 1025.999, 951.119 1028.443 M 455.423 1044.500 C 453.794 1049.798, 454.298 1060.280, 456.330 1063.381 C 457.336 1064.917, 458.265 1066.022, 458.394 1065.837 C 458.522 1065.652, 458.114 1060.100, 457.486 1053.500 C 456.545 1043.609, 456.183 1042.027, 455.423 1044.500" stroke="none" fill="#b45309" fill-rule="evenodd"/>
</svg>